<svg width="80" height="54" viewBox="0 0 80 54" fill="none" xmlns="http://www.w3.org/2000/svg">
<g clip-path="url(#clip0_1795_350)">
<path d="M22.5982 24H21.121V21.1076H17.8671V24H16.4002V17.1099H17.8671V19.8163H21.121V17.1099H22.5982V24ZM28.8318 24H23.9561V17.1099H28.8318V18.3701H25.4229V19.868H28.7595V21.1283H25.4229V22.7294H28.8318V24ZM35.5567 24H33.8729L32.5197 21.5311H31.4454V24H29.9785V17.1099H33.2015C34.6374 17.1099 35.5154 18.0499 35.5154 19.3308C35.5154 20.5498 34.751 21.2006 34.0072 21.3762L35.5567 24ZM34.0176 19.3205C34.0176 18.742 33.5734 18.3701 32.9846 18.3701H31.4454V20.2709H32.9846C33.5734 20.2709 34.0176 19.899 34.0176 19.3205ZM38.0832 24H36.6164V17.1099H38.0832V24ZM42.5191 24H41.0419V18.4011H39.0275V17.1099H44.5231V18.4011H42.5191V24ZM51.2229 24H49.6218L49.1879 22.812H46.1096L45.6757 24H44.0642L46.7294 17.1099H48.5681L51.2229 24ZM48.785 21.5415L47.6487 18.3805L46.5021 21.5415H48.785ZM51.1755 20.5601C51.1755 18.3805 52.8283 16.9963 54.8427 16.9963C56.2682 16.9963 57.1669 17.6884 57.6938 18.5044L56.4748 19.1656C56.1546 18.68 55.5658 18.2978 54.8427 18.2978C53.5927 18.2978 52.6837 19.2585 52.6837 20.5601C52.6837 21.8617 53.5927 22.8224 54.8427 22.8224C55.4728 22.8224 56.0306 22.5641 56.3302 22.2955V21.4588H54.4915V20.1986H57.7764V22.8327C57.074 23.6178 56.0926 24.1343 54.8427 24.1343C52.8283 24.1343 51.1755 22.7294 51.1755 20.5601ZM63.8166 24H58.9409V17.1099H63.8166V18.3701H60.4077V19.868H63.7443V21.1283H60.4077V22.7294H63.8166V24ZM15.2695 33H13.8026V26.1099H15.2695V33ZM22.8043 33H21.3891L18.1042 28.3722V33H16.6373V26.1099H18.1455L21.3374 30.5724V26.1099H22.8043V33ZM34.2745 33H32.7973V28.0416L30.8552 33H30.2148L28.2727 28.0416V33H26.8059V26.1099H28.8616L30.535 30.4072L32.2085 26.1099H34.2745V33ZM35.3123 29.5601C35.3123 27.4838 36.8308 25.9963 38.9072 25.9963C40.9938 25.9963 42.5123 27.4838 42.5123 29.5601C42.5123 31.6364 40.9938 33.124 38.9072 33.124C36.8308 33.124 35.3123 31.6364 35.3123 29.5601ZM41.0041 29.5601C41.0041 28.2689 40.1777 27.2978 38.9072 27.2978C37.6366 27.2978 36.8205 28.2689 36.8205 29.5601C36.8205 30.841 37.6366 31.8224 38.9072 31.8224C40.1777 31.8224 41.0041 30.841 41.0041 29.5601ZM46.3575 33H44.8803V27.4011H42.866V26.1099H48.3615V27.4011H46.3575V33ZM50.7687 33H49.3019V26.1099H50.7687V33ZM51.806 29.5601C51.806 27.4838 53.3245 25.9963 55.4009 25.9963C57.4875 25.9963 59.006 27.4838 59.006 29.5601C59.006 31.6364 57.4875 33.124 55.4009 33.124C53.3245 33.124 51.806 31.6364 51.806 29.5601ZM57.4979 29.5601C57.4979 28.2689 56.6714 27.2978 55.4009 27.2978C54.1303 27.2978 53.3142 28.2689 53.3142 29.5601C53.3142 30.841 54.1303 31.8224 55.4009 31.8224C56.6714 31.8224 57.4979 30.841 57.4979 29.5601ZM66.2024 33H64.7872L61.5023 28.3722V33H60.0354V26.1099H61.5436L64.7355 30.5724V26.1099H66.2024V33ZM33.0469 41H32.2719L32.0619 40.425H30.5719L30.3619 41H29.5819L30.8719 37.665H31.7619L33.0469 41ZM31.8669 39.81L31.3169 38.28L30.7619 39.81H31.8669ZM36.4402 41H35.6852L35.1002 38.71L34.5202 41H33.7652L32.8102 37.665H33.6052L34.1902 40.075L34.8252 37.665H35.3802L36.0102 40.075L36.5902 37.665H37.3902L36.4402 41ZM40.6153 41H39.8403L39.6303 40.425H38.1403L37.9303 41H37.1503L38.4403 37.665H39.3303L40.6153 41ZM39.4353 39.81L38.8853 38.28L38.3303 39.81H39.4353ZM43.6233 41H42.8083L42.1533 39.805H41.6333V41H40.9233V37.665H42.4833C43.1783 37.665 43.6033 38.12 43.6033 38.74C43.6033 39.33 43.2333 39.645 42.8733 39.73L43.6233 41ZM42.8783 38.735C42.8783 38.455 42.6633 38.275 42.3783 38.275H41.6333V39.195H42.3783C42.6633 39.195 42.8783 39.015 42.8783 38.735ZM45.4512 41H44.1362V37.665H45.4512C46.4962 37.665 47.2212 38.33 47.2212 39.335C47.2212 40.34 46.4962 41 45.4512 41ZM44.8462 38.29V40.375H45.4512C46.1112 40.375 46.4962 39.9 46.4962 39.335C46.4962 38.745 46.1362 38.29 45.4512 38.29H44.8462ZM47.495 40.53L47.885 39.99C48.12 40.235 48.485 40.44 48.945 40.44C49.335 40.44 49.525 40.255 49.525 40.065C49.525 39.815 49.235 39.73 48.85 39.64C48.305 39.515 47.605 39.365 47.605 38.62C47.605 38.065 48.085 37.615 48.87 37.615C49.4 37.615 49.84 37.775 50.17 38.08L49.775 38.6C49.505 38.35 49.145 38.235 48.82 38.235C48.5 38.235 48.33 38.375 48.33 38.575C48.33 38.8 48.61 38.87 48.995 38.96C49.545 39.085 50.245 39.25 50.245 39.99C50.245 40.6 49.81 41.06 48.91 41.06C48.27 41.06 47.81 40.845 47.495 40.53Z" fill="white"/>
<path fill-rule="evenodd" clip-rule="evenodd" d="M58.0017 52.3324C66.0202 51.2187 71.8614 44.8861 74.5246 36.2336C75.6157 32.6544 75.7777 28.6845 75.3907 24.5262C74.6848 17.1125 71.2954 10.6702 66.3475 5.97389C66.3288 5.95162 66.3168 5.94476 66.3134 5.96532C66.2981 5.9876 66.2572 6.01159 66.235 6.02358C66.2077 6.039 66.2009 6.02701 66.218 6.05785C71.4658 10.8861 74.8383 18.5568 75.2048 26.3149C75.7726 37.3884 70.4173 47.2026 62.3937 50.5779C61.0451 51.1484 59.6385 51.5853 58.1671 51.8081C58.0648 51.9417 58.0034 52.125 58 52.3307" fill="white"/>
<path fill-rule="evenodd" clip-rule="evenodd" d="M77.9957 33.8315C77.3376 34.6145 76.2976 35.3821 75.174 35.0839C75.1178 35.173 74.8177 35.6065 74.7802 35.6716C74.729 35.7539 74.6335 35.8344 74.5602 35.7642C74.5176 35.7316 74.4784 35.6716 74.5261 35.5688C74.6864 35.3632 74.8518 35.1559 75.0376 34.9383C75.3667 33.177 75.8492 32.0085 76.8585 30.8211C78.023 29.4624 79.2199 28.8524 79.9565 28.5989C80.0656 28.5663 80.1628 28.5406 80.2702 28.5081C80.3435 29.1865 80.0298 30.1752 79.7877 30.7457C79.3137 31.8971 78.7988 32.908 77.9957 33.8298" fill="white"/>
<path fill-rule="evenodd" clip-rule="evenodd" d="M68.3439 9.0665C68.436 9.1042 68.9833 9.24812 69.0481 9.13504C69.0719 9.10248 69.0413 8.99626 68.9918 8.9894C68.7923 8.96713 68.5707 8.95171 68.3763 8.9123C68.0285 7.79861 67.0447 7.31373 66.1445 7.12698C65.0653 6.90938 63.8752 7.24177 62.6016 7.41996C62.5385 7.43367 62.4669 7.43881 62.4038 7.44223C62.4226 7.48507 62.4533 7.51591 62.4822 7.55532C63.0176 8.28864 63.8479 8.95685 64.6646 9.28924C65.2068 9.52054 65.8649 9.64905 66.5094 9.62849C67.1828 9.61135 67.7557 9.45544 68.3405 9.0665" fill="white"/>
<path fill-rule="evenodd" clip-rule="evenodd" d="M66.2366 6.02358C66.194 6.039 66.1906 6.02701 66.1156 5.97732C65.9604 5.83683 65.8342 5.74773 65.6791 5.60723C64.813 5.61409 63.9929 5.35708 63.2171 4.83622C62.8727 4.60149 62.5283 4.32221 62.2402 3.98639C61.5497 3.24108 60.9921 2.15138 60.7381 1.15249C60.7245 1.09595 60.7142 1.05654 60.7108 1C60.7756 1.02741 60.8336 1.05654 60.8967 1.08567C62.2964 1.64765 63.6468 1.91151 64.7703 3.00292C65.5308 3.7311 65.928 4.6152 65.7695 5.47359C65.94 5.61238 66.1241 5.73916 66.2878 5.90193C66.3679 5.96019 66.281 6.02187 66.2366 6.0253" fill="white"/>
<path fill-rule="evenodd" clip-rule="evenodd" d="M71.3175 13.7371C71.4096 13.7885 71.9398 14.0627 72.0183 13.9719C72.0524 13.9376 72.037 13.8194 71.9876 13.8022C71.7915 13.7269 71.5579 13.6789 71.3738 13.5949C71.3005 12.8085 70.864 12.0718 69.9894 11.5646C68.6578 10.8553 67.1421 10.9735 65.7201 10.845C65.6485 10.8398 65.5854 10.8347 65.5206 10.8279C65.5428 10.8673 65.5633 10.9084 65.582 10.9512C66.0594 11.7753 66.8249 12.6646 67.6143 13.1734C68.1395 13.5281 68.7874 13.7971 69.4318 13.9256C70.107 14.0524 70.6952 13.9787 71.3175 13.7389" fill="white"/>
<path fill-rule="evenodd" clip-rule="evenodd" d="M78.2959 25.9037C77.8628 26.8786 77.0871 27.9529 75.9532 28.0232C75.9157 28.1225 75.7094 28.5937 75.6805 28.6674C75.6566 28.7685 75.585 28.8798 75.4895 28.8319C75.4486 28.8164 75.4008 28.7599 75.4111 28.6554C75.5236 28.3915 75.6549 28.1893 75.7828 27.9221C75.6805 26.1299 75.7828 24.8174 76.4647 23.3405C77.2388 21.6374 78.3112 20.6643 78.9659 20.1845C79.0478 20.1126 79.1381 20.0543 79.2336 19.9926C79.3836 20.6848 79.3376 21.7642 79.2455 22.3879C79.0733 23.6609 78.8005 24.7626 78.2959 25.902" fill="white"/>
<path fill-rule="evenodd" clip-rule="evenodd" d="M77.019 18.6973C76.8314 19.7391 76.3643 20.7911 75.3277 21.2434C75.3174 21.353 75.1998 21.8585 75.1861 21.9373C75.1861 22.0435 75.1486 22.1669 75.0463 22.1532C75.0139 22.1446 74.9423 22.1189 74.9372 22.0093C74.9798 21.7368 75.0583 21.425 75.1111 21.1269C74.765 19.8607 74.5792 18.7059 74.6388 17.4637C74.7343 15.7212 75.3805 14.2117 76.3984 12.9901C76.4768 12.8993 76.5382 12.8085 76.6081 12.7263C76.8945 13.3259 77.0821 14.354 77.1349 14.9656C77.2406 16.2181 77.2355 17.4757 77.0173 18.6956" fill="white"/>
<path fill-rule="evenodd" clip-rule="evenodd" d="M74.4068 12.1231C74.4324 13.1974 74.1784 14.3951 73.2798 15.0873C73.2884 15.1935 73.3054 15.7161 73.3122 15.788C73.3276 15.8857 73.3208 16.0142 73.2185 16.0347C73.181 16.0382 73.1196 16.0296 73.094 15.9251C73.0735 15.6544 73.0667 15.2432 73.0531 14.9502C72.2893 13.648 71.8818 12.2328 71.8613 10.6085C71.8306 8.73239 72.2944 7.5416 72.6626 6.78944C72.7104 6.68835 72.7615 6.58726 72.811 6.48788C73.2134 6.98133 73.5953 7.91854 73.7675 8.5028C74.1187 9.67303 74.3744 10.8895 74.4068 12.1231Z" fill="white"/>
<path fill-rule="evenodd" clip-rule="evenodd" d="M70.4463 6.11952C70.6782 7.12355 70.61 8.60218 69.8649 9.207C69.8922 9.33721 69.957 9.78783 69.9655 9.88378C69.9911 9.99001 70.015 10.0962 69.9297 10.1374C69.8939 10.1511 69.8666 10.1511 69.824 10.0568C69.7763 9.77755 69.7609 9.53939 69.7132 9.25155C68.6476 8.11216 68.044 6.98134 67.7098 5.44274C67.3688 3.83046 67.4166 2.54716 67.5649 1.64593C67.582 1.53627 67.6092 1.42662 67.6399 1.31525C68.5777 2.06741 69.2375 3.05774 69.8001 4.19027C70.0934 4.80023 70.3321 5.43246 70.4446 6.11952" fill="white"/>
<path fill-rule="evenodd" clip-rule="evenodd" d="M73.7062 19.8933C73.7915 19.9738 74.2689 20.4278 74.3848 20.3679C74.4172 20.3422 74.4377 20.1897 74.3865 20.1605C74.2041 20.0149 73.9773 19.9104 73.7966 19.7682C73.8546 18.8978 73.6585 18.0206 72.8708 17.1896C71.6586 16.0125 70.0559 15.615 68.5964 15.0033C68.5316 14.9742 68.4652 14.9365 68.3901 14.9108C68.4021 14.9639 68.414 15.017 68.4293 15.0701C68.7158 16.0793 69.2921 17.2615 69.9945 18.06C70.4497 18.5962 71.0618 19.1068 71.7012 19.4512C72.3661 19.8162 73.0055 19.9327 73.7062 19.8967" fill="white"/>
<path fill-rule="evenodd" clip-rule="evenodd" d="M74.7121 26.9609C74.7786 27.0757 75.1554 27.6993 75.2799 27.6668C75.3259 27.6668 75.3787 27.5177 75.3395 27.4595C75.1793 27.2521 74.9815 27.0808 74.8417 26.8632C75.0872 26.0665 74.9713 24.9151 74.3813 23.8151C73.4436 22.2114 72.0779 21.4284 70.7498 20.3062C70.6918 20.2479 70.6338 20.1948 70.5724 20.1348C70.5673 20.1897 70.5605 20.2445 70.5673 20.3079C70.598 21.4113 70.8827 22.7905 71.3976 23.8271C71.7284 24.5296 72.2194 25.2338 72.7821 25.8146C73.372 26.4109 73.9875 26.7467 74.7104 26.9609" fill="white"/>
<path fill-rule="evenodd" clip-rule="evenodd" d="M74.054 33.8897C74.1017 34.0285 74.3609 34.7653 74.4921 34.7961C74.5348 34.791 74.62 34.6779 74.5876 34.6042C74.4802 34.3592 74.3592 34.0765 74.2586 33.8212C74.7036 33.398 74.8587 32.2055 74.499 30.965C73.8988 29.142 72.5672 27.7713 71.4948 26.2618C71.4454 26.1899 71.3959 26.1179 71.3448 26.0477C71.3294 26.1008 71.3226 26.1573 71.3107 26.2104C71.1282 27.2727 71.1351 28.6862 71.4249 29.8359C71.6193 30.6035 71.9569 31.4465 72.3967 32.1729C72.852 32.9371 73.389 33.4614 74.0574 33.8914" fill="white"/>
<path fill-rule="evenodd" clip-rule="evenodd" d="M75.6617 41.999C74.8502 42.5319 73.3924 42.9363 72.3899 42.2783C72.3132 42.34 71.8921 42.5867 71.8443 42.633C71.7744 42.705 71.6687 42.7546 71.609 42.6518C71.5749 42.609 71.5528 42.537 71.6227 42.4565C71.829 42.3109 72.0626 42.2166 72.2876 42.0727C73.0514 40.4793 73.8732 39.4033 75.1298 38.61C76.5688 37.6831 77.7691 37.666 78.5431 37.666C78.6523 37.666 78.7546 37.6711 78.8671 37.6745C78.6727 39.2491 76.7393 41.3257 75.6617 41.9973" fill="white"/>
<path fill-rule="evenodd" clip-rule="evenodd" d="M71.6687 40.7706C71.6755 40.8682 71.7266 41.3223 71.7982 41.593C71.8221 41.6701 71.8289 41.79 71.9363 41.7472C71.9807 41.7369 72.0216 41.6461 72.0182 41.5999C71.9653 41.3343 71.9244 41.0293 71.9056 40.7603C72.4052 40.4433 72.7956 39.3999 72.8724 38.1234C72.7854 36.1891 71.9227 34.438 71.2322 32.6201C71.2117 32.5396 71.1844 32.4556 71.1538 32.37C71.1265 32.4111 71.106 32.4608 71.0787 32.5002C70.6184 33.4562 70.2672 34.7944 70.2382 36.0006C70.2109 36.7922 70.3217 37.7088 70.5536 38.5603C70.794 39.429 71.1555 40.1195 71.6721 40.7689" fill="white"/>
<path fill-rule="evenodd" clip-rule="evenodd" d="M71.251 48.6041C70.3184 48.7908 69.0481 48.7463 68.2587 47.7388C68.0593 47.768 67.737 47.8211 67.529 47.8348C67.4728 47.8399 67.4267 47.8005 67.4029 47.7234C67.3875 47.672 67.4029 47.6069 67.4983 47.5589C67.7319 47.5058 67.9706 47.5109 68.2229 47.4664C69.2749 46.2311 70.2689 45.532 71.6977 45.2716C73.3549 44.9717 74.7598 45.3949 75.5015 45.7085C75.6055 45.7462 75.7112 45.7907 75.8015 45.8421C75.5356 46.4435 74.7547 47.0603 74.2722 47.355C73.3413 47.9701 72.3797 48.4173 71.2493 48.6058" fill="white"/>
<path fill-rule="evenodd" clip-rule="evenodd" d="M67.9075 45.9895C67.8905 46.1009 67.8751 46.5326 67.8751 46.8239C67.8802 46.901 67.8598 47.0141 67.9689 47.0158C68.0183 47.0141 68.0746 46.9541 68.0797 46.901C68.0985 46.6303 68.0882 46.3476 68.1326 46.07C68.6867 45.8935 69.4198 45.0489 69.7591 43.8855C70.1496 42.0162 69.7216 40.0921 69.5204 38.1234C69.5068 38.0378 69.5102 37.9487 69.5051 37.8527C69.471 37.8904 69.4266 37.9247 69.3943 37.959C68.7157 38.7026 68.0371 39.8522 67.7166 40.983C67.4949 41.7215 67.3756 42.6347 67.379 43.5102C67.3892 44.432 67.5699 45.2031 67.9075 45.9912" fill="white"/>
<path fill-rule="evenodd" clip-rule="evenodd" d="M62.6631 49.7932C62.617 49.8737 62.5505 50.2335 62.4772 50.5111C62.4568 50.5728 62.4175 50.6738 62.5096 50.7132C62.559 50.7321 62.629 50.6927 62.6426 50.6499C62.7381 50.4151 62.7381 50.1753 62.8489 49.9405C63.3877 50.069 64.3237 49.382 64.9375 48.4842C65.7866 46.937 65.8786 45.1174 66.2077 43.2773C66.2179 43.1899 66.2418 43.1128 66.2588 43.0271C66.2179 43.0374 66.1719 43.0614 66.1276 43.0751C65.3109 43.4897 64.3868 44.2179 63.7883 45.1123C63.3826 45.6931 62.9989 46.4932 62.7841 47.3002C62.5625 48.1415 62.5522 48.9468 62.6614 49.7932" fill="white"/>
<path fill-rule="evenodd" clip-rule="evenodd" d="M65.6092 53.2301C64.6561 53.1016 63.4098 52.6596 62.8693 51.4294C62.6767 51.3729 62.3374 51.3335 62.1328 51.2752C62.0765 51.2649 62.0441 51.205 62.039 51.1261C62.0373 51.0833 62.068 51.0165 62.1669 51.0011C62.4073 51.0353 62.6374 51.1107 62.9085 51.1398C64.2964 50.3123 65.4217 49.9388 66.8794 50.1512C68.5605 50.3911 69.7779 51.2392 70.4343 51.7772C70.5298 51.856 70.6201 51.9263 70.7071 52.012C70.3013 52.514 69.3942 52.8464 68.8589 52.9869C67.8035 53.285 66.7652 53.3998 65.6092 53.2336" fill="white"/>
<path fill-rule="evenodd" clip-rule="evenodd" d="M22.2812 52.3324C14.2644 51.2187 8.42146 44.8861 5.76 36.2336C4.66712 32.6544 4.50515 28.6845 4.89218 24.5262C5.59803 17.1125 8.98751 10.6702 13.9353 5.97389C13.9541 5.95162 13.966 5.94476 13.9694 5.96532C13.9848 5.9876 14.0257 6.01159 14.0479 6.02358C14.0751 6.039 14.0837 6.02701 14.0649 6.05785C8.81702 10.8861 5.44459 18.5568 5.07972 26.3149C4.51197 37.3884 9.86728 47.2026 17.8909 50.5779C19.2378 51.1484 20.6444 51.5853 22.1158 51.8081C22.2181 51.9417 22.2795 52.125 22.2829 52.3307" fill="white"/>
<path fill-rule="evenodd" clip-rule="evenodd" d="M2.28873 33.8315C2.94685 34.6145 3.98517 35.3821 5.10875 35.0839C5.16501 35.173 5.46338 35.6065 5.5043 35.6716C5.55375 35.7539 5.64922 35.8344 5.72254 35.7642C5.76516 35.7316 5.80438 35.6716 5.75834 35.5688C5.59637 35.3632 5.43269 35.1559 5.24515 34.9383C4.91609 33.177 4.43358 32.0085 3.42424 30.8211C2.25974 29.4624 1.06286 28.8524 0.324604 28.5989C0.213781 28.5663 0.118302 28.5406 0.0108893 28.5081C-0.0624244 29.1865 0.249585 30.1752 0.493396 30.7457C0.967377 31.8971 1.48228 32.908 2.28532 33.8298" fill="white"/>
<path fill-rule="evenodd" clip-rule="evenodd" d="M11.9389 9.0665C11.8468 9.1042 11.3012 9.24812 11.2347 9.13504C11.2109 9.10248 11.2432 8.99626 11.291 8.9894C11.4905 8.96713 11.7138 8.95171 11.9065 8.9123C12.256 7.79861 13.2398 7.31373 14.1383 7.12698C15.2175 6.90938 16.4076 7.24177 17.6812 7.41996C17.7443 7.43367 17.8159 7.43881 17.879 7.44223C17.8602 7.48507 17.8295 7.51591 17.7989 7.55532C17.2635 8.28864 16.4332 8.95685 15.6182 9.28924C15.0743 9.52054 14.4162 9.64905 13.7734 9.62849C13.1 9.61135 12.5254 9.45544 11.9406 9.0665" fill="white"/>
<path fill-rule="evenodd" clip-rule="evenodd" d="M14.0462 6.02358C14.0889 6.039 14.0906 6.02701 14.169 5.97732C14.3225 5.83683 14.4503 5.74773 14.6038 5.60723C15.4699 5.61409 16.29 5.35708 17.0657 4.83622C17.4102 4.60149 17.7546 4.32221 18.0444 3.98639C18.7349 3.24108 19.2907 2.15138 19.5448 1.15249C19.5567 1.09595 19.5686 1.05654 19.5721 1C19.509 1.02741 19.4493 1.05654 19.3862 1.08567C17.9864 1.64765 16.6378 1.91151 15.5142 3.00292C14.7538 3.7311 14.3548 4.6152 14.5151 5.47359C14.3429 5.61238 14.1605 5.73916 13.9951 5.90193C13.915 5.96019 14.0036 6.02187 14.048 6.0253" fill="white"/>
<path fill-rule="evenodd" clip-rule="evenodd" d="M8.9654 13.7371C8.87334 13.7885 8.34309 14.0627 8.26466 13.9719C8.23056 13.9376 8.24591 13.8194 8.29535 13.8022C8.49142 13.7269 8.7233 13.6789 8.91085 13.5949C8.98416 12.8085 9.41893 12.0718 10.2936 11.5646C11.6252 10.8553 13.1409 10.9735 14.5645 10.845C14.6361 10.8398 14.6992 10.8347 14.764 10.8279C14.7435 10.8673 14.7214 10.9084 14.7043 10.9512C14.2269 11.7753 13.4597 12.6646 12.6703 13.1734C12.1452 13.5281 11.4956 13.7971 10.8494 13.9256C10.1759 14.0524 9.58942 13.9787 8.9654 13.7389" fill="white"/>
<path fill-rule="evenodd" clip-rule="evenodd" d="M1.98696 25.9037C2.42172 26.8786 3.19578 27.9529 4.32958 28.0232C4.36539 28.1225 4.57339 28.5937 4.60238 28.6674C4.62625 28.7685 4.69786 28.8798 4.79163 28.8319C4.83255 28.8164 4.88029 28.7599 4.86835 28.6554C4.75753 28.3915 4.62454 28.1893 4.49667 27.9221C4.60067 26.1299 4.49667 24.8174 3.81468 23.3405C3.04063 21.6374 1.9682 20.6643 1.31349 20.1845C1.23165 20.1126 1.14129 20.0543 1.04581 19.9926C0.897479 20.6848 0.941808 21.7642 1.03558 22.3879C1.20608 23.6609 1.48058 24.7626 1.98525 25.902" fill="white"/>
<path fill-rule="evenodd" clip-rule="evenodd" d="M3.26398 18.6973C3.45324 19.7391 3.91699 20.7911 4.95531 21.2434C4.96725 21.353 5.08489 21.8585 5.10024 21.9373C5.10024 22.0435 5.13604 22.1669 5.24004 22.1532C5.27073 22.1446 5.34234 22.1189 5.34746 22.0093C5.30483 21.7368 5.2264 21.425 5.17355 21.1269C5.51795 19.8607 5.70721 18.7059 5.64583 17.4637C5.55035 15.7212 4.90246 14.2117 3.8863 12.9901C3.80958 12.8993 3.74649 12.8085 3.67659 12.7263C3.39015 13.3259 3.20261 14.354 3.14975 14.9656C3.04404 16.2181 3.04916 17.4757 3.26739 18.6956" fill="white"/>
<path fill-rule="evenodd" clip-rule="evenodd" d="M5.87768 12.1231C5.8504 13.1974 6.10444 14.3951 7.00296 15.0873C6.99614 15.1935 6.97568 15.7161 6.97056 15.788C6.95522 15.8857 6.96374 16.0142 7.06434 16.0347C7.10185 16.0382 7.16493 16.0296 7.1888 15.9251C7.20926 15.6544 7.21778 15.2432 7.23142 14.9502C7.99525 13.648 8.40274 12.2328 8.42149 10.6085C8.45218 8.73239 7.98672 7.5416 7.62016 6.78944C7.57071 6.68835 7.52127 6.58726 7.47182 6.48788C7.06775 6.98133 6.68754 7.91854 6.51534 8.5028C6.16241 9.67303 5.90837 10.8895 5.87597 12.1231" fill="white"/>
<path fill-rule="evenodd" clip-rule="evenodd" d="M9.83846 6.11952C9.60658 7.12355 9.67308 8.60218 10.4182 9.207C10.3909 9.33721 10.3261 9.78783 10.3193 9.88378C10.292 9.99001 10.2681 10.0962 10.3534 10.1374C10.3892 10.1511 10.4164 10.1511 10.4591 10.0568C10.5068 9.77755 10.5222 9.53939 10.5699 9.25155C11.6372 8.11216 12.2391 6.98134 12.5749 5.44274C12.9125 3.83046 12.8648 2.54716 12.7165 1.64593C12.7011 1.53627 12.6721 1.42662 12.6414 1.31525C11.7037 2.06741 11.0439 3.05774 10.4812 4.19027C10.188 4.80023 9.94928 5.43246 9.83846 6.11952Z" fill="white"/>
<path fill-rule="evenodd" clip-rule="evenodd" d="M6.57677 19.8933C6.49152 19.9738 6.01413 20.4278 5.8982 20.3679C5.8658 20.3422 5.84534 20.1897 5.89649 20.1605C6.07892 20.0149 6.30568 19.9104 6.48811 19.7682C6.42844 18.8978 6.62622 18.0206 7.41221 17.1896C8.62444 16.0125 10.2271 15.615 11.6866 15.0033C11.7531 14.9742 11.8196 14.9365 11.8929 14.9108C11.8809 14.9639 11.869 15.017 11.8519 15.0701C11.5672 16.0793 10.9909 17.2615 10.2885 18.06C9.83327 18.5962 9.22118 19.1068 8.58182 19.4512C7.91688 19.8162 7.27922 19.9327 6.57677 19.8967" fill="white"/>
<path fill-rule="evenodd" clip-rule="evenodd" d="M5.57076 26.9609C5.50427 27.0757 5.12747 27.6993 5.00301 27.6668C4.95356 27.6668 4.90071 27.5177 4.94163 27.4595C5.10189 27.2521 5.29967 27.0808 5.44118 26.8632C5.19396 26.0665 5.31161 24.9151 5.89982 23.8151C6.83755 22.2114 8.20323 21.4284 9.53141 20.3062C9.59108 20.2479 9.64905 20.1948 9.70872 20.1348C9.71384 20.1897 9.72066 20.2445 9.71384 20.3079C9.68315 21.4113 9.39842 22.7905 8.88522 23.8271C8.55275 24.5296 8.06172 25.2338 7.50079 25.8146C6.91257 26.4109 6.29537 26.7467 5.57076 26.9609Z" fill="white"/>
<path fill-rule="evenodd" clip-rule="evenodd" d="M6.23067 33.8897C6.18293 34.0285 5.92378 34.7653 5.7925 34.7961C5.74987 34.791 5.66462 34.6779 5.69702 34.6042C5.80443 34.3592 5.92548 34.0765 6.02608 33.8212C5.58108 33.398 5.42593 32.2055 5.78738 30.965C6.38582 29.142 7.71911 27.7713 8.78983 26.2618C8.84098 26.1899 8.88872 26.1179 8.93987 26.0477C8.95521 26.1008 8.96374 26.1573 8.97397 26.2104C9.15811 27.2727 9.14788 28.6862 8.85974 29.8359C8.66707 30.6035 8.32608 31.4465 7.8879 32.1729C7.43438 32.9371 6.89561 33.4614 6.22726 33.8914" fill="white"/>
<path fill-rule="evenodd" clip-rule="evenodd" d="M4.62282 41.999C5.43268 42.5319 6.89043 42.9363 7.89296 42.2783C7.96968 42.34 8.39081 42.5867 8.43855 42.633C8.50845 42.705 8.61416 42.7546 8.67383 42.6518C8.70964 42.609 8.7301 42.537 8.6619 42.4565C8.4556 42.3109 8.22031 42.2166 7.99696 42.0727C7.23313 40.4793 6.40963 39.4033 5.15307 38.61C3.71408 37.6831 2.51378 37.666 1.73972 37.666C1.6306 37.666 1.5266 37.6711 1.41748 37.6745C1.61014 39.2491 3.54528 41.3257 4.62282 41.9973" fill="white"/>
<path fill-rule="evenodd" clip-rule="evenodd" d="M8.61594 40.7706C8.60742 40.8682 8.55627 41.3223 8.48466 41.593C8.46079 41.6701 8.45397 41.79 8.34826 41.7472C8.30223 41.7369 8.26301 41.6461 8.26472 41.5999C8.31757 41.3343 8.35849 41.0293 8.37895 40.7603C7.87939 40.4433 7.49066 39.3999 7.41223 38.1234C7.49918 36.1891 8.3619 34.438 9.05241 32.6201C9.07287 32.5396 9.10015 32.4556 9.13255 32.37C9.15983 32.4111 9.17858 32.4608 9.20586 32.5002C9.66791 33.4562 10.0191 34.7944 10.0481 36.0006C10.0754 36.7922 9.96287 37.7088 9.7327 38.5603C9.49229 39.429 9.13255 40.1195 8.61424 40.7689" fill="white"/>
<path fill-rule="evenodd" clip-rule="evenodd" d="M9.03188 48.6041C9.9645 48.7908 11.2347 48.7463 12.0241 47.7388C12.2236 47.768 12.5475 47.8211 12.7555 47.8348C12.8118 47.8399 12.8578 47.8005 12.88 47.7234C12.8953 47.672 12.88 47.6069 12.7845 47.5589C12.5492 47.5058 12.3105 47.5109 12.0599 47.4664C11.0079 46.2311 10.0139 45.532 8.58518 45.2716C6.92795 44.9717 5.52305 45.3949 4.77969 45.7085C4.67739 45.7462 4.56997 45.7907 4.47791 45.8421C4.74559 46.4435 5.52476 47.0603 6.00897 47.355C6.93818 47.9701 7.89978 48.4173 9.03017 48.6058" fill="white"/>
<path fill-rule="evenodd" clip-rule="evenodd" d="M12.3754 45.9895C12.3907 46.1009 12.4077 46.5326 12.4077 46.8239C12.4026 46.901 12.4231 47.0141 12.314 47.0158C12.2645 47.0141 12.2083 46.9541 12.2031 46.901C12.1844 46.6303 12.1963 46.3476 12.1503 46.07C11.5962 45.8935 10.863 45.0489 10.5238 43.8855C10.135 42.0162 10.5596 40.0921 10.7624 38.1234C10.7761 38.0378 10.7727 37.9487 10.7795 37.8527C10.8136 37.8904 10.8579 37.9247 10.892 37.959C11.5706 38.7026 12.2475 39.8522 12.5697 40.983C12.7914 41.7215 12.9107 42.6347 12.9056 43.5102C12.8954 44.432 12.7146 45.2031 12.3788 45.9912" fill="white"/>
<path fill-rule="evenodd" clip-rule="evenodd" d="M17.6198 49.7932C17.6676 49.8737 17.7341 50.2335 17.8057 50.5111C17.8261 50.5728 17.8671 50.6738 17.7733 50.7132C17.7238 50.7321 17.6556 50.6927 17.642 50.6499C17.5465 50.4151 17.5465 50.1753 17.4357 49.9405C16.8969 50.069 15.9609 49.382 15.3471 48.4842C14.498 46.937 14.406 45.1174 14.0769 43.2773C14.0667 43.1899 14.0428 43.1128 14.024 43.0271C14.065 43.0374 14.111 43.0614 14.1553 43.0751C14.972 43.4897 15.8961 44.2179 16.4928 45.1123C16.9003 45.6931 17.284 46.4932 17.4988 47.3002C17.7204 48.1415 17.7307 48.9468 17.6215 49.7932" fill="white"/>
<path fill-rule="evenodd" clip-rule="evenodd" d="M14.6737 53.2301C15.6285 53.1016 16.8731 52.6596 17.4153 51.4294C17.6062 51.3729 17.9455 51.3335 18.1518 51.2752C18.2081 51.2649 18.2405 51.205 18.2456 51.1261C18.2473 51.0833 18.2149 51.0165 18.1177 51.0011C17.8773 51.0353 17.6454 51.1107 17.376 51.1398C15.9865 50.3123 14.8629 49.9388 13.4052 50.1512C11.7258 50.3911 10.5067 51.2392 9.85031 51.7772C9.75483 51.856 9.66447 51.9263 9.57751 52.012C9.9833 52.514 10.8903 52.8464 11.4257 52.9869C12.4811 53.285 13.5211 53.3998 14.6754 53.2336" fill="white"/>
</g>
<defs>
<clipPath id="clip0_1795_350">
<rect width="80" height="54" fill="white"/>
</clipPath>
</defs>
</svg>
