<svg width="80" height="54" viewBox="0 0 80 54" fill="none" xmlns="http://www.w3.org/2000/svg">
<g clip-path="url(#clip0_1795_392)">
<path d="M26.8967 31H23.7967L22.9567 28.7H16.9967L16.1567 31H13.0367L18.1967 17.66H21.7567L26.8967 31ZM22.1767 26.24L19.9767 20.12L17.7567 26.24H22.1767ZM26.805 24.34C26.805 20.12 30.005 17.44 33.905 17.44C36.665 17.44 38.405 18.78 39.425 20.36L37.065 21.64C36.445 20.7 35.305 19.96 33.905 19.96C31.485 19.96 29.725 21.82 29.725 24.34C29.725 26.86 31.485 28.72 33.905 28.72C35.125 28.72 36.205 28.22 36.785 27.7V26.08H33.225V23.64H39.585V28.74C38.225 30.26 36.325 31.26 33.905 31.26C30.005 31.26 26.805 28.54 26.805 24.34ZM47.0995 31H41.8395V17.66H47.0995C51.2795 17.66 54.1795 20.32 54.1795 24.34C54.1795 28.36 51.2795 31 47.0995 31ZM44.6795 20.16V28.5H47.0995C49.7395 28.5 51.2795 26.6 51.2795 24.34C51.2795 21.98 49.8395 20.16 47.0995 20.16H44.6795ZM67.9514 31H64.8514L64.0114 28.7H58.0514L57.2114 31H54.0914L59.2514 17.66H62.8114L67.9514 31ZM63.2314 26.24L61.0314 20.12L58.8114 26.24H63.2314ZM22.0547 38H20.7397V34.665H22.0547C23.0997 34.665 23.8247 35.33 23.8247 36.335C23.8247 37.34 23.0997 38 22.0547 38ZM21.4497 35.29V37.375H22.0547C22.7147 37.375 23.0997 36.9 23.0997 36.335C23.0997 35.745 22.7397 35.29 22.0547 35.29H21.4497ZM26.6885 38H24.3285V34.665H26.6885V35.275H25.0385V36H26.6535V36.61H25.0385V37.385H26.6885V38ZM27.0136 37.53L27.4036 36.99C27.6386 37.235 28.0036 37.44 28.4636 37.44C28.8536 37.44 29.0436 37.255 29.0436 37.065C29.0436 36.815 28.7536 36.73 28.3686 36.64C27.8236 36.515 27.1236 36.365 27.1236 35.62C27.1236 35.065 27.6036 34.615 28.3886 34.615C28.9186 34.615 29.3586 34.775 29.6886 35.08L29.2936 35.6C29.0236 35.35 28.6636 35.235 28.3386 35.235C28.0186 35.235 27.8486 35.375 27.8486 35.575C27.8486 35.8 28.1286 35.87 28.5136 35.96C29.0636 36.085 29.7636 36.25 29.7636 36.99C29.7636 37.6 29.3286 38.06 28.4286 38.06C27.7886 38.06 27.3286 37.845 27.0136 37.53ZM30.9516 38H30.2416V34.665H30.9516V38ZM31.4537 36.335C31.4537 35.28 32.2537 34.61 33.2287 34.61C33.9187 34.61 34.3537 34.945 34.6087 35.34L34.0187 35.66C33.8637 35.425 33.5787 35.24 33.2287 35.24C32.6237 35.24 32.1837 35.705 32.1837 36.335C32.1837 36.965 32.6237 37.43 33.2287 37.43C33.5337 37.43 33.8037 37.305 33.9487 37.175V36.77H33.0587V36.16H34.6487V37.435C34.3087 37.815 33.8337 38.065 33.2287 38.065C32.2537 38.065 31.4537 37.385 31.4537 36.335ZM38.1973 38H37.5123L35.9223 35.76V38H35.2123V34.665H35.9423L37.4873 36.825V34.665H38.1973V38ZM43.2442 38H42.4692L42.2592 37.425H40.7692L40.5592 38H39.7792L41.0692 34.665H41.9592L43.2442 38ZM42.0642 36.81L41.5142 35.28L40.9592 36.81H42.0642ZM46.6374 38H45.8824L45.2974 35.71L44.7174 38H43.9624L43.0074 34.665H43.8024L44.3874 37.075L45.0224 34.665H45.5774L46.2074 37.075L46.7874 34.665H47.5874L46.6374 38ZM50.8126 38H50.0376L49.8276 37.425H48.3376L48.1276 38H47.3476L48.6376 34.665H49.5276L50.8126 38ZM49.6326 36.81L49.0826 35.28L48.5276 36.81H49.6326ZM53.8205 38H53.0055L52.3505 36.805H51.8305V38H51.1205V34.665H52.6805C53.3755 34.665 53.8005 35.12 53.8005 35.74C53.8005 36.33 53.4305 36.645 53.0705 36.73L53.8205 38ZM53.0755 35.735C53.0755 35.455 52.8605 35.275 52.5755 35.275H51.8305V36.195H52.5755C52.8605 36.195 53.0755 36.015 53.0755 35.735ZM55.6484 38H54.3334V34.665H55.6484C56.6934 34.665 57.4184 35.33 57.4184 36.335C57.4184 37.34 56.6934 38 55.6484 38ZM55.0434 35.29V37.375H55.6484C56.3084 37.375 56.6934 36.9 56.6934 36.335C56.6934 35.745 56.3334 35.29 55.6484 35.29H55.0434ZM57.6923 37.53L58.0823 36.99C58.3173 37.235 58.6823 37.44 59.1423 37.44C59.5323 37.44 59.7223 37.255 59.7223 37.065C59.7223 36.815 59.4323 36.73 59.0473 36.64C58.5023 36.515 57.8023 36.365 57.8023 35.62C57.8023 35.065 58.2823 34.615 59.0673 34.615C59.5973 34.615 60.0373 34.775 60.3673 35.08L59.9723 35.6C59.7023 35.35 59.3423 35.235 59.0173 35.235C58.6973 35.235 58.5273 35.375 58.5273 35.575C58.5273 35.8 58.8073 35.87 59.1923 35.96C59.7423 36.085 60.4423 36.25 60.4423 36.99C60.4423 37.6 60.0073 38.06 59.1073 38.06C58.4673 38.06 58.0073 37.845 57.6923 37.53Z" fill="white"/>
<path fill-rule="evenodd" clip-rule="evenodd" d="M58.0017 51.3324C66.0202 50.2187 71.8614 43.8861 74.5246 35.2336C75.6157 31.6544 75.7777 27.6845 75.3907 23.5262C74.6848 16.1125 71.2954 9.67022 66.3475 4.97389C66.3288 4.95162 66.3168 4.94476 66.3134 4.96532C66.2981 4.9876 66.2572 5.01159 66.235 5.02358C66.2077 5.039 66.2009 5.02701 66.218 5.05785C71.4658 9.8861 74.8383 17.5568 75.2048 25.3149C75.7726 36.3884 70.4173 46.2026 62.3937 49.5779C61.0451 50.1484 59.6385 50.5853 58.1671 50.8081C58.0648 50.9417 58.0034 51.125 58 51.3307" fill="white"/>
<path fill-rule="evenodd" clip-rule="evenodd" d="M77.9959 32.8315C77.3378 33.6145 76.2977 34.3821 75.1741 34.0839C75.1179 34.173 74.8178 34.6065 74.7803 34.6716C74.7291 34.7539 74.6337 34.8344 74.5604 34.7642C74.5177 34.7316 74.4785 34.6716 74.5263 34.5688C74.6865 34.3632 74.8519 34.1559 75.0377 33.9383C75.3668 32.177 75.8493 31.0085 76.8587 29.8211C78.0231 28.4624 79.22 27.8524 79.9566 27.5989C80.0657 27.5663 80.1629 27.5406 80.2703 27.5081C80.3436 28.1865 80.0299 29.1752 79.7878 29.7457C79.3138 30.8971 78.7989 31.908 77.9959 32.8298" fill="white"/>
<path fill-rule="evenodd" clip-rule="evenodd" d="M68.3439 8.0665C68.436 8.1042 68.9833 8.24812 69.0481 8.13504C69.0719 8.10248 69.0413 7.99626 68.9918 7.9894C68.7923 7.96713 68.5707 7.95171 68.3763 7.9123C68.0285 6.79861 67.0447 6.31373 66.1445 6.12698C65.0653 5.90938 63.8752 6.24177 62.6016 6.41996C62.5385 6.43367 62.4669 6.43881 62.4038 6.44223C62.4226 6.48507 62.4533 6.51591 62.4822 6.55532C63.0176 7.28864 63.8479 7.95685 64.6646 8.28924C65.2068 8.52054 65.8649 8.64905 66.5094 8.62849C67.1828 8.61135 67.7557 8.45544 68.3405 8.0665" fill="white"/>
<path fill-rule="evenodd" clip-rule="evenodd" d="M66.2367 5.02358C66.1941 5.039 66.1907 5.02701 66.1157 4.97732C65.9605 4.83683 65.8344 4.74773 65.6792 4.60723C64.8131 4.61409 63.993 4.35708 63.2172 3.83622C62.8728 3.60149 62.5284 3.32221 62.2403 2.98639C61.5498 2.24108 60.9923 1.15138 60.7382 0.152489C60.7246 0.0959484 60.7143 0.056541 60.7109 0C60.7757 0.0274138 60.8337 0.056541 60.8968 0.0856682C62.2966 0.647651 63.6469 0.911509 64.7705 2.00292C65.5309 2.7311 65.9281 3.6152 65.7696 4.47359C65.9401 4.61238 66.1242 4.73916 66.2879 4.90193C66.368 4.96019 66.2811 5.02187 66.2367 5.0253" fill="white"/>
<path fill-rule="evenodd" clip-rule="evenodd" d="M71.3174 12.7371C71.4095 12.7885 71.9397 13.0627 72.0182 12.9719C72.0523 12.9376 72.0369 12.8194 71.9875 12.8022C71.7914 12.7269 71.5578 12.6789 71.3737 12.5949C71.3004 11.8085 70.8639 11.0718 69.9892 10.5646C68.6577 9.85526 67.1419 9.97349 65.72 9.84498C65.6484 9.83984 65.5853 9.8347 65.5205 9.82785C65.5427 9.86726 65.5631 9.90838 65.5819 9.95121C66.0593 10.7753 66.8248 11.6646 67.6142 12.1734C68.1393 12.5281 68.7872 12.7971 69.4317 12.9256C70.1069 13.0524 70.6951 12.9787 71.3174 12.7389" fill="white"/>
<path fill-rule="evenodd" clip-rule="evenodd" d="M78.2959 24.9037C77.8628 25.8786 77.0871 26.9529 75.9532 27.0232C75.9157 27.1225 75.7094 27.5937 75.6805 27.6674C75.6566 27.7685 75.585 27.8798 75.4895 27.8319C75.4486 27.8164 75.4008 27.7599 75.4111 27.6554C75.5236 27.3915 75.6549 27.1893 75.7828 26.9221C75.6805 25.1299 75.7828 23.8174 76.4647 22.3405C77.2388 20.6374 78.3112 19.6643 78.9659 19.1845C79.0478 19.1126 79.1381 19.0543 79.2336 18.9926C79.3836 19.6848 79.3376 20.7642 79.2455 21.3879C79.0733 22.6609 78.8005 23.7626 78.2959 24.902" fill="white"/>
<path fill-rule="evenodd" clip-rule="evenodd" d="M77.0189 17.6973C76.8313 18.7391 76.3642 19.7911 75.3275 20.2434C75.3173 20.353 75.1997 20.8585 75.186 20.9373C75.186 21.0435 75.1485 21.1669 75.0462 21.1532C75.0138 21.1446 74.9422 21.1189 74.9371 21.0093C74.9797 20.7368 75.0581 20.425 75.111 20.1269C74.7649 18.8607 74.579 17.7059 74.6387 16.4637C74.7342 14.7212 75.3804 13.2117 76.3983 11.9901C76.4767 11.8993 76.5381 11.8085 76.608 11.7263C76.8944 12.3259 77.0819 13.354 77.1348 13.9656C77.2405 15.2181 77.2354 16.4757 77.0172 17.6956" fill="white"/>
<path fill-rule="evenodd" clip-rule="evenodd" d="M74.4068 11.1231C74.4324 12.1974 74.1784 13.3951 73.2798 14.0873C73.2884 14.1935 73.3054 14.7161 73.3122 14.788C73.3276 14.8857 73.3208 15.0142 73.2185 15.0347C73.181 15.0382 73.1196 15.0296 73.094 14.9251C73.0735 14.6544 73.0667 14.2432 73.0531 13.9502C72.2893 12.648 71.8818 11.2328 71.8613 9.60852C71.8306 7.73239 72.2944 6.5416 72.6626 5.78944C72.7104 5.68835 72.7615 5.58726 72.811 5.48788C73.2134 5.98133 73.5953 6.91854 73.7675 7.5028C74.1187 8.67303 74.3744 9.88952 74.4068 11.1231Z" fill="white"/>
<path fill-rule="evenodd" clip-rule="evenodd" d="M70.4462 5.11952C70.6781 6.12355 70.6099 7.60218 69.8648 8.207C69.8921 8.33721 69.9569 8.78783 69.9654 8.88378C69.991 8.99001 70.0148 9.09624 69.9296 9.13736C69.8938 9.15106 69.8665 9.15106 69.8239 9.05683C69.7761 8.77755 69.7608 8.53939 69.713 8.25155C68.6474 7.11216 68.0439 5.98134 67.7097 4.44274C67.3687 2.83046 67.4165 1.54716 67.5648 0.645926C67.5818 0.53627 67.6091 0.426615 67.6398 0.315247C68.5775 1.06741 69.2374 2.05774 69.8 3.19027C70.0933 3.80023 70.332 4.43246 70.4445 5.11952" fill="white"/>
<path fill-rule="evenodd" clip-rule="evenodd" d="M73.7062 18.8933C73.7915 18.9738 74.2689 19.4278 74.3848 19.3679C74.4172 19.3422 74.4377 19.1897 74.3865 19.1605C74.2041 19.0149 73.9773 18.9104 73.7966 18.7682C73.8546 17.8978 73.6585 17.0206 72.8708 16.1896C71.6586 15.0125 70.0559 14.615 68.5964 14.0033C68.5316 13.9742 68.4652 13.9365 68.3901 13.9108C68.4021 13.9639 68.414 14.017 68.4293 14.0701C68.7158 15.0793 69.2921 16.2615 69.9945 17.06C70.4497 17.5962 71.0618 18.1068 71.7012 18.4512C72.3661 18.8162 73.0055 18.9327 73.7062 18.8967" fill="white"/>
<path fill-rule="evenodd" clip-rule="evenodd" d="M74.7121 25.9609C74.7786 26.0757 75.1554 26.6993 75.2799 26.6668C75.3259 26.6668 75.3787 26.5177 75.3395 26.4595C75.1793 26.2521 74.9815 26.0808 74.8417 25.8632C75.0872 25.0665 74.9713 23.9151 74.3813 22.8151C73.4436 21.2114 72.0779 20.4284 70.7498 19.3062C70.6918 19.2479 70.6338 19.1948 70.5724 19.1348C70.5673 19.1897 70.5605 19.2445 70.5673 19.3079C70.598 20.4113 70.8827 21.7905 71.3976 22.8271C71.7284 23.5296 72.2194 24.2338 72.7821 24.8146C73.372 25.4109 73.9875 25.7467 74.7104 25.9609" fill="white"/>
<path fill-rule="evenodd" clip-rule="evenodd" d="M74.054 32.8897C74.1017 33.0285 74.3609 33.7653 74.4921 33.7961C74.5348 33.791 74.62 33.6779 74.5876 33.6042C74.4802 33.3592 74.3592 33.0765 74.2586 32.8212C74.7036 32.398 74.8587 31.2055 74.499 29.965C73.8988 28.142 72.5672 26.7713 71.4948 25.2618C71.4454 25.1899 71.3959 25.1179 71.3448 25.0477C71.3294 25.1008 71.3226 25.1573 71.3107 25.2104C71.1282 26.2727 71.1351 27.6862 71.4249 28.8359C71.6193 29.6035 71.9569 30.4465 72.3967 31.1729C72.852 31.9371 73.389 32.4614 74.0574 32.8914" fill="white"/>
<path fill-rule="evenodd" clip-rule="evenodd" d="M75.6619 40.999C74.8503 41.5319 73.3926 41.9363 72.39 41.2783C72.3133 41.34 71.8922 41.5867 71.8444 41.633C71.7745 41.705 71.6688 41.7546 71.6091 41.6518C71.575 41.609 71.5529 41.537 71.6228 41.4565C71.8291 41.3109 72.0627 41.2166 72.2877 41.0727C73.0516 39.4793 73.8734 38.4033 75.1299 37.61C76.5689 36.6831 77.7692 36.666 78.5433 36.666C78.6524 36.666 78.7547 36.6711 78.8672 36.6745C78.6728 38.2491 76.7394 40.3257 75.6619 40.9973" fill="white"/>
<path fill-rule="evenodd" clip-rule="evenodd" d="M71.6687 39.7706C71.6755 39.8682 71.7266 40.3223 71.7982 40.593C71.8221 40.6701 71.8289 40.79 71.9363 40.7472C71.9807 40.7369 72.0216 40.6461 72.0182 40.5999C71.9653 40.3343 71.9244 40.0293 71.9056 39.7603C72.4052 39.4433 72.7956 38.3999 72.8724 37.1234C72.7854 35.1891 71.9227 33.438 71.2322 31.6201C71.2117 31.5396 71.1844 31.4556 71.1538 31.37C71.1265 31.4111 71.106 31.4608 71.0787 31.5002C70.6184 32.4562 70.2672 33.7944 70.2382 35.0006C70.2109 35.7922 70.3217 36.7088 70.5536 37.5603C70.794 38.429 71.1555 39.1195 71.6721 39.7689" fill="white"/>
<path fill-rule="evenodd" clip-rule="evenodd" d="M71.251 47.6041C70.3184 47.7908 69.0481 47.7463 68.2587 46.7388C68.0593 46.768 67.737 46.8211 67.529 46.8348C67.4728 46.8399 67.4267 46.8005 67.4029 46.7234C67.3875 46.672 67.4029 46.6069 67.4983 46.5589C67.7319 46.5058 67.9706 46.5109 68.2229 46.4664C69.2749 45.2311 70.2689 44.532 71.6977 44.2716C73.3549 43.9717 74.7598 44.3949 75.5015 44.7085C75.6055 44.7462 75.7112 44.7907 75.8015 44.8421C75.5356 45.4435 74.7547 46.0603 74.2722 46.355C73.3413 46.9701 72.3797 47.4173 71.2493 47.6058" fill="white"/>
<path fill-rule="evenodd" clip-rule="evenodd" d="M67.9075 44.9895C67.8905 45.1009 67.8751 45.5326 67.8751 45.8239C67.8802 45.901 67.8598 46.0141 67.9689 46.0158C68.0183 46.0141 68.0746 45.9541 68.0797 45.901C68.0985 45.6303 68.0882 45.3476 68.1326 45.07C68.6867 44.8935 69.4198 44.0489 69.7591 42.8855C70.1496 41.0162 69.7216 39.0921 69.5204 37.1234C69.5068 37.0378 69.5102 36.9487 69.5051 36.8527C69.471 36.8904 69.4266 36.9247 69.3943 36.959C68.7157 37.7026 68.0371 38.8522 67.7166 39.983C67.4949 40.7215 67.3756 41.6347 67.379 42.5102C67.3892 43.432 67.5699 44.2031 67.9075 44.9912" fill="white"/>
<path fill-rule="evenodd" clip-rule="evenodd" d="M62.6631 48.7932C62.617 48.8737 62.5505 49.2335 62.4772 49.5111C62.4568 49.5728 62.4175 49.6738 62.5096 49.7132C62.559 49.7321 62.629 49.6927 62.6426 49.6499C62.7381 49.4151 62.7381 49.1753 62.8489 48.9405C63.3877 49.069 64.3237 48.382 64.9375 47.4842C65.7866 45.937 65.8786 44.1174 66.2077 42.2773C66.2179 42.1899 66.2418 42.1128 66.2588 42.0271C66.2179 42.0374 66.1719 42.0614 66.1276 42.0751C65.3109 42.4897 64.3868 43.2179 63.7883 44.1123C63.3826 44.6931 62.9989 45.4932 62.7841 46.3002C62.5625 47.1415 62.5522 47.9468 62.6614 48.7932" fill="white"/>
<path fill-rule="evenodd" clip-rule="evenodd" d="M65.6093 52.2301C64.6563 52.1016 63.4099 51.6596 62.8694 50.4294C62.6768 50.3729 62.3375 50.3335 62.1329 50.2752C62.0766 50.2649 62.0442 50.205 62.0391 50.1261C62.0374 50.0833 62.0681 50.0165 62.167 50.0011C62.4074 50.0353 62.6376 50.1107 62.9087 50.1398C64.2965 49.3123 65.4218 48.9388 66.8795 49.1512C68.5606 49.3911 69.778 50.2392 70.4344 50.7772C70.5299 50.856 70.6202 50.9263 70.7072 51.012C70.3014 51.514 69.3944 51.8464 68.859 51.9869C67.8036 52.285 66.7653 52.3998 65.6093 52.2336" fill="white"/>
<path fill-rule="evenodd" clip-rule="evenodd" d="M22.2812 51.3324C14.2644 50.2187 8.42146 43.8861 5.76 35.2336C4.66712 31.6544 4.50515 27.6845 4.89218 23.5262C5.59803 16.1125 8.98751 9.67022 13.9353 4.97389C13.9541 4.95162 13.966 4.94476 13.9694 4.96532C13.9848 4.9876 14.0257 5.01159 14.0479 5.02358C14.0751 5.039 14.0837 5.02701 14.0649 5.05785C8.81702 9.8861 5.44459 17.5568 5.07972 25.3149C4.51197 36.3884 9.86728 46.2026 17.8909 49.5779C19.2378 50.1484 20.6444 50.5853 22.1158 50.8081C22.2181 50.9417 22.2795 51.125 22.2829 51.3307" fill="white"/>
<path fill-rule="evenodd" clip-rule="evenodd" d="M2.28873 32.8315C2.94685 33.6145 3.98517 34.3821 5.10875 34.0839C5.16501 34.173 5.46338 34.6065 5.5043 34.6716C5.55375 34.7539 5.64922 34.8344 5.72254 34.7642C5.76516 34.7316 5.80438 34.6716 5.75834 34.5688C5.59637 34.3632 5.43269 34.1559 5.24515 33.9383C4.91609 32.177 4.43358 31.0085 3.42424 29.8211C2.25974 28.4624 1.06286 27.8524 0.324604 27.5989C0.213781 27.5663 0.118302 27.5406 0.0108893 27.5081C-0.0624244 28.1865 0.249585 29.1752 0.493396 29.7457C0.967377 30.8971 1.48228 31.908 2.28532 32.8298" fill="white"/>
<path fill-rule="evenodd" clip-rule="evenodd" d="M11.9389 8.0665C11.8468 8.1042 11.3012 8.24812 11.2347 8.13504C11.2109 8.10248 11.2432 7.99626 11.291 7.9894C11.4905 7.96713 11.7138 7.95171 11.9065 7.9123C12.256 6.79861 13.2398 6.31373 14.1383 6.12698C15.2175 5.90938 16.4076 6.24177 17.6812 6.41996C17.7443 6.43367 17.8159 6.43881 17.879 6.44223C17.8602 6.48507 17.8295 6.51591 17.7989 6.55532C17.2635 7.28864 16.4332 7.95685 15.6182 8.28924C15.0743 8.52054 14.4162 8.64905 13.7734 8.62849C13.1 8.61135 12.5254 8.45544 11.9406 8.0665" fill="white"/>
<path fill-rule="evenodd" clip-rule="evenodd" d="M14.0462 5.02358C14.0889 5.039 14.0906 5.02701 14.169 4.97732C14.3225 4.83683 14.4503 4.74773 14.6038 4.60723C15.4699 4.61409 16.29 4.35708 17.0657 3.83622C17.4102 3.60149 17.7546 3.32221 18.0444 2.98639C18.7349 2.24108 19.2907 1.15138 19.5448 0.152489C19.5567 0.0959484 19.5686 0.056541 19.5721 0C19.509 0.0274138 19.4493 0.056541 19.3862 0.0856682C17.9864 0.647651 16.6378 0.911509 15.5142 2.00292C14.7538 2.7311 14.3548 3.6152 14.5151 4.47359C14.3429 4.61238 14.1605 4.73916 13.9951 4.90193C13.915 4.96019 14.0036 5.02187 14.048 5.0253" fill="white"/>
<path fill-rule="evenodd" clip-rule="evenodd" d="M8.9654 12.7371C8.87334 12.7885 8.34309 13.0627 8.26466 12.9719C8.23056 12.9376 8.24591 12.8194 8.29535 12.8022C8.49142 12.7269 8.7233 12.6789 8.91085 12.5949C8.98416 11.8085 9.41893 11.0718 10.2936 10.5646C11.6252 9.85526 13.1409 9.97349 14.5645 9.84498C14.6361 9.83984 14.6992 9.8347 14.764 9.82785C14.7435 9.86726 14.7214 9.90838 14.7043 9.95121C14.2269 10.7753 13.4597 11.6646 12.6703 12.1734C12.1452 12.5281 11.4956 12.7971 10.8494 12.9256C10.1759 13.0524 9.58942 12.9787 8.9654 12.7389" fill="white"/>
<path fill-rule="evenodd" clip-rule="evenodd" d="M1.98696 24.9037C2.42172 25.8786 3.19578 26.9529 4.32958 27.0232C4.36539 27.1225 4.57339 27.5937 4.60238 27.6674C4.62625 27.7685 4.69786 27.8798 4.79163 27.8319C4.83255 27.8164 4.88029 27.7599 4.86835 27.6554C4.75753 27.3915 4.62454 27.1893 4.49667 26.9221C4.60067 25.1299 4.49667 23.8174 3.81468 22.3405C3.04063 20.6374 1.9682 19.6643 1.31349 19.1845C1.23165 19.1126 1.14129 19.0543 1.04581 18.9926C0.897479 19.6848 0.941808 20.7642 1.03558 21.3879C1.20608 22.6609 1.48058 23.7626 1.98525 24.902" fill="white"/>
<path fill-rule="evenodd" clip-rule="evenodd" d="M3.26398 17.6973C3.45324 18.7391 3.91699 19.7911 4.95531 20.2434C4.96725 20.353 5.08489 20.8585 5.10024 20.9373C5.10024 21.0435 5.13604 21.1669 5.24004 21.1532C5.27073 21.1446 5.34234 21.1189 5.34746 21.0093C5.30483 20.7368 5.2264 20.425 5.17355 20.1269C5.51795 18.8607 5.70721 17.7059 5.64583 16.4637C5.55035 14.7212 4.90246 13.2117 3.8863 11.9901C3.80958 11.8993 3.74649 11.8085 3.67659 11.7263C3.39015 12.3259 3.20261 13.354 3.14975 13.9656C3.04404 15.2181 3.04916 16.4757 3.26739 17.6956" fill="white"/>
<path fill-rule="evenodd" clip-rule="evenodd" d="M5.87768 11.1231C5.8504 12.1974 6.10444 13.3951 7.00296 14.0873C6.99614 14.1935 6.97568 14.7161 6.97056 14.788C6.95522 14.8857 6.96374 15.0142 7.06434 15.0347C7.10185 15.0382 7.16493 15.0296 7.1888 14.9251C7.20926 14.6544 7.21778 14.2432 7.23142 13.9502C7.99525 12.648 8.40274 11.2328 8.42149 9.60852C8.45218 7.73239 7.98672 6.5416 7.62016 5.78944C7.57071 5.68835 7.52127 5.58726 7.47182 5.48788C7.06775 5.98133 6.68754 6.91854 6.51534 7.5028C6.16241 8.67303 5.90837 9.88952 5.87597 11.1231" fill="white"/>
<path fill-rule="evenodd" clip-rule="evenodd" d="M9.83846 5.11952C9.60658 6.12355 9.67308 7.60218 10.4182 8.207C10.3909 8.33721 10.3261 8.78783 10.3193 8.88378C10.292 8.99001 10.2681 9.09624 10.3534 9.13736C10.3892 9.15106 10.4164 9.15106 10.4591 9.05683C10.5068 8.77755 10.5222 8.53939 10.5699 8.25155C11.6372 7.11216 12.2391 5.98134 12.5749 4.44274C12.9125 2.83046 12.8648 1.54716 12.7165 0.645926C12.7011 0.53627 12.6721 0.426615 12.6414 0.315247C11.7037 1.06741 11.0439 2.05774 10.4812 3.19027C10.188 3.80023 9.94928 4.43246 9.83846 5.11952Z" fill="white"/>
<path fill-rule="evenodd" clip-rule="evenodd" d="M6.57677 18.8933C6.49152 18.9738 6.01413 19.4278 5.8982 19.3679C5.8658 19.3422 5.84534 19.1897 5.89649 19.1605C6.07892 19.0149 6.30568 18.9104 6.48811 18.7682C6.42844 17.8978 6.62622 17.0206 7.41221 16.1896C8.62444 15.0125 10.2271 14.615 11.6866 14.0033C11.7531 13.9742 11.8196 13.9365 11.8929 13.9108C11.8809 13.9639 11.869 14.017 11.8519 14.0701C11.5672 15.0793 10.9909 16.2615 10.2885 17.06C9.83327 17.5962 9.22118 18.1068 8.58182 18.4512C7.91688 18.8162 7.27922 18.9327 6.57677 18.8967" fill="white"/>
<path fill-rule="evenodd" clip-rule="evenodd" d="M5.57076 25.9609C5.50427 26.0757 5.12747 26.6993 5.00301 26.6668C4.95356 26.6668 4.90071 26.5177 4.94163 26.4595C5.10189 26.2521 5.29967 26.0808 5.44118 25.8632C5.19396 25.0665 5.31161 23.9151 5.89982 22.8151C6.83755 21.2114 8.20323 20.4284 9.53141 19.3062C9.59108 19.2479 9.64905 19.1948 9.70872 19.1348C9.71384 19.1897 9.72066 19.2445 9.71384 19.3079C9.68315 20.4113 9.39842 21.7905 8.88522 22.8271C8.55275 23.5296 8.06172 24.2338 7.50079 24.8146C6.91257 25.4109 6.29537 25.7467 5.57076 25.9609Z" fill="white"/>
<path fill-rule="evenodd" clip-rule="evenodd" d="M6.23067 32.8897C6.18293 33.0285 5.92378 33.7653 5.7925 33.7961C5.74987 33.791 5.66462 33.6779 5.69702 33.6042C5.80443 33.3592 5.92548 33.0765 6.02608 32.8212C5.58108 32.398 5.42593 31.2055 5.78738 29.965C6.38582 28.142 7.71911 26.7713 8.78983 25.2618C8.84098 25.1899 8.88872 25.1179 8.93987 25.0477C8.95521 25.1008 8.96374 25.1573 8.97397 25.2104C9.15811 26.2727 9.14788 27.6862 8.85974 28.8359C8.66707 29.6035 8.32608 30.4465 7.8879 31.1729C7.43438 31.9371 6.89561 32.4614 6.22726 32.8914" fill="white"/>
<path fill-rule="evenodd" clip-rule="evenodd" d="M4.62282 40.999C5.43268 41.5319 6.89043 41.9363 7.89296 41.2783C7.96968 41.34 8.39081 41.5867 8.43855 41.633C8.50845 41.705 8.61416 41.7546 8.67383 41.6518C8.70964 41.609 8.7301 41.537 8.6619 41.4565C8.4556 41.3109 8.22031 41.2166 7.99696 41.0727C7.23313 39.4793 6.40963 38.4033 5.15307 37.61C3.71408 36.6831 2.51378 36.666 1.73972 36.666C1.6306 36.666 1.5266 36.6711 1.41748 36.6745C1.61014 38.2491 3.54528 40.3257 4.62282 40.9973" fill="white"/>
<path fill-rule="evenodd" clip-rule="evenodd" d="M8.61594 39.7706C8.60742 39.8682 8.55627 40.3223 8.48466 40.593C8.46079 40.6701 8.45397 40.79 8.34826 40.7472C8.30223 40.7369 8.26301 40.6461 8.26472 40.5999C8.31757 40.3343 8.35849 40.0293 8.37895 39.7603C7.87939 39.4433 7.49066 38.3999 7.41223 37.1234C7.49918 35.1891 8.3619 33.438 9.05241 31.6201C9.07287 31.5396 9.10015 31.4556 9.13255 31.37C9.15983 31.4111 9.17858 31.4608 9.20586 31.5002C9.66791 32.4562 10.0191 33.7944 10.0481 35.0006C10.0754 35.7922 9.96287 36.7088 9.7327 37.5603C9.49229 38.429 9.13255 39.1195 8.61424 39.7689" fill="white"/>
<path fill-rule="evenodd" clip-rule="evenodd" d="M9.03188 47.6041C9.9645 47.7908 11.2347 47.7463 12.0241 46.7388C12.2236 46.768 12.5475 46.8211 12.7555 46.8348C12.8118 46.8399 12.8578 46.8005 12.88 46.7234C12.8953 46.672 12.88 46.6069 12.7845 46.5589C12.5492 46.5058 12.3105 46.5109 12.0599 46.4664C11.0079 45.2311 10.0139 44.532 8.58518 44.2716C6.92795 43.9717 5.52305 44.3949 4.77969 44.7085C4.67739 44.7462 4.56997 44.7907 4.47791 44.8421C4.74559 45.4435 5.52476 46.0603 6.00897 46.355C6.93818 46.9701 7.89978 47.4173 9.03017 47.6058" fill="white"/>
<path fill-rule="evenodd" clip-rule="evenodd" d="M12.3754 44.9895C12.3907 45.1009 12.4077 45.5326 12.4077 45.8239C12.4026 45.901 12.4231 46.0141 12.314 46.0158C12.2645 46.0141 12.2083 45.9541 12.2031 45.901C12.1844 45.6303 12.1963 45.3476 12.1503 45.07C11.5962 44.8935 10.863 44.0489 10.5238 42.8855C10.135 41.0162 10.5596 39.0921 10.7624 37.1234C10.7761 37.0378 10.7727 36.9487 10.7795 36.8527C10.8136 36.8904 10.8579 36.9247 10.892 36.959C11.5706 37.7026 12.2475 38.8522 12.5697 39.983C12.7914 40.7215 12.9107 41.6347 12.9056 42.5102C12.8954 43.432 12.7146 44.2031 12.3788 44.9912" fill="white"/>
<path fill-rule="evenodd" clip-rule="evenodd" d="M17.6198 48.7932C17.6676 48.8737 17.7341 49.2335 17.8057 49.5111C17.8261 49.5728 17.8671 49.6738 17.7733 49.7132C17.7238 49.7321 17.6556 49.6927 17.642 49.6499C17.5465 49.4151 17.5465 49.1753 17.4357 48.9405C16.8969 49.069 15.9609 48.382 15.3471 47.4842C14.498 45.937 14.406 44.1174 14.0769 42.2773C14.0667 42.1899 14.0428 42.1128 14.024 42.0271C14.065 42.0374 14.111 42.0614 14.1553 42.0751C14.972 42.4897 15.8961 43.2179 16.4928 44.1123C16.9003 44.6931 17.284 45.4932 17.4988 46.3002C17.7204 47.1415 17.7307 47.9468 17.6215 48.7932" fill="white"/>
<path fill-rule="evenodd" clip-rule="evenodd" d="M14.6737 52.2301C15.6285 52.1016 16.8731 51.6596 17.4153 50.4294C17.6062 50.3729 17.9455 50.3335 18.1518 50.2752C18.2081 50.2649 18.2405 50.205 18.2456 50.1261C18.2473 50.0833 18.2149 50.0165 18.1177 50.0011C17.8773 50.0353 17.6454 50.1107 17.376 50.1398C15.9865 49.3123 14.8629 48.9388 13.4052 49.1512C11.7258 49.3911 10.5067 50.2392 9.85031 50.7772C9.75483 50.856 9.66447 50.9263 9.57751 51.012C9.9833 51.514 10.8903 51.8464 11.4257 51.9869C12.4811 52.285 13.5211 52.3998 14.6754 52.2336" fill="white"/>
</g>
<defs>
<clipPath id="clip0_1795_392">
<rect width="80" height="54" fill="white"/>
</clipPath>
</defs>
</svg>
