<svg width="80" height="54" viewBox="0 0 80 54" fill="none" xmlns="http://www.w3.org/2000/svg">
<g clip-path="url(#clip0_1795_474)">
<path d="M22.6072 20.004C22.6072 17.472 24.5272 15.864 26.8672 15.864C28.5232 15.864 29.5672 16.668 30.1792 17.616L28.7632 18.384C28.3912 17.82 27.7072 17.376 26.8672 17.376C25.4152 17.376 24.3592 18.492 24.3592 20.004C24.3592 21.516 25.4152 22.632 26.8672 22.632C27.5992 22.632 28.2472 22.332 28.5952 22.02V21.048H26.4592V19.584H30.2752V22.644C29.4592 23.556 28.3192 24.156 26.8672 24.156C24.5272 24.156 22.6072 22.524 22.6072 20.004ZM31.2439 20.004C31.2439 17.592 33.0079 15.864 35.4199 15.864C37.8439 15.864 39.6079 17.592 39.6079 20.004C39.6079 22.416 37.8439 24.144 35.4199 24.144C33.0079 24.144 31.2439 22.416 31.2439 20.004ZM37.8559 20.004C37.8559 18.504 36.8959 17.376 35.4199 17.376C33.9439 17.376 32.9959 18.504 32.9959 20.004C32.9959 21.492 33.9439 22.632 35.4199 22.632C36.8959 22.632 37.8559 21.492 37.8559 20.004ZM40.4197 20.004C40.4197 17.592 42.1837 15.864 44.5957 15.864C47.0197 15.864 48.7837 17.592 48.7837 20.004C48.7837 22.416 47.0197 24.144 44.5957 24.144C42.1837 24.144 40.4197 22.416 40.4197 20.004ZM47.0317 20.004C47.0317 18.504 46.0717 17.376 44.5957 17.376C43.1197 17.376 42.1717 18.504 42.1717 20.004C42.1717 21.492 43.1197 22.632 44.5957 22.632C46.0717 22.632 47.0317 21.492 47.0317 20.004ZM53.1355 24H49.9795V15.996H53.1355C55.6435 15.996 57.3835 17.592 57.3835 20.004C57.3835 22.416 55.6435 24 53.1355 24ZM51.6835 17.496V22.5H53.1355C54.7195 22.5 55.6435 21.36 55.6435 20.004C55.6435 18.588 54.7795 17.496 53.1355 17.496H51.6835ZM22.2097 34H19.0537V25.996H22.2097C24.7177 25.996 26.4577 27.592 26.4577 30.004C26.4577 32.416 24.7177 34 22.2097 34ZM20.7577 27.496V32.5H22.2097C23.7937 32.5 24.7177 31.36 24.7177 30.004C24.7177 28.588 23.8537 27.496 22.2097 27.496H20.7577ZM33.331 34H27.667V25.996H33.331V27.46H29.371V29.2H33.247V30.664H29.371V32.524H33.331V34ZM34.1111 32.872L35.0471 31.576C35.6111 32.164 36.4871 32.656 37.5911 32.656C38.5271 32.656 38.9831 32.212 38.9831 31.756C38.9831 31.156 38.2871 30.952 37.3631 30.736C36.0551 30.436 34.3751 30.076 34.3751 28.288C34.3751 26.956 35.5271 25.876 37.4111 25.876C38.6831 25.876 39.7391 26.26 40.5311 26.992L39.5831 28.24C38.9351 27.64 38.0711 27.364 37.2911 27.364C36.5231 27.364 36.1151 27.7 36.1151 28.18C36.1151 28.72 36.7871 28.888 37.7111 29.104C39.0311 29.404 40.7111 29.8 40.7111 31.576C40.7111 33.04 39.6671 34.144 37.5071 34.144C35.9711 34.144 34.8671 33.628 34.1111 32.872ZM43.5624 34H41.8584V25.996H43.5624V34ZM44.7674 30.004C44.7674 27.472 46.6874 25.864 49.0274 25.864C50.6834 25.864 51.7274 26.668 52.3394 27.616L50.9234 28.384C50.5514 27.82 49.8674 27.376 49.0274 27.376C47.5754 27.376 46.5194 28.492 46.5194 30.004C46.5194 31.516 47.5754 32.632 49.0274 32.632C49.7594 32.632 50.4074 32.332 50.7554 32.02V31.048H48.6194V29.584H52.4354V32.644C51.6194 33.556 50.4794 34.156 49.0274 34.156C46.6874 34.156 44.7674 32.524 44.7674 30.004ZM60.9521 34H59.3081L55.4921 28.624V34H53.7881V25.996H55.5401L59.2481 31.18V25.996H60.9521V34ZM33.0469 42H32.2719L32.0619 41.425H30.5719L30.3619 42H29.5819L30.8719 38.665H31.7619L33.0469 42ZM31.8669 40.81L31.3169 39.28L30.7619 40.81H31.8669ZM36.4402 42H35.6852L35.1002 39.71L34.5202 42H33.7652L32.8102 38.665H33.6052L34.1902 41.075L34.8252 38.665H35.3802L36.0102 41.075L36.5902 38.665H37.3902L36.4402 42ZM40.6153 42H39.8403L39.6303 41.425H38.1403L37.9303 42H37.1503L38.4403 38.665H39.3303L40.6153 42ZM39.4353 40.81L38.8853 39.28L38.3303 40.81H39.4353ZM43.6233 42H42.8083L42.1533 40.805H41.6333V42H40.9233V38.665H42.4833C43.1783 38.665 43.6033 39.12 43.6033 39.74C43.6033 40.33 43.2333 40.645 42.8733 40.73L43.6233 42ZM42.8783 39.735C42.8783 39.455 42.6633 39.275 42.3783 39.275H41.6333V40.195H42.3783C42.6633 40.195 42.8783 40.015 42.8783 39.735ZM45.4512 42H44.1362V38.665H45.4512C46.4962 38.665 47.2212 39.33 47.2212 40.335C47.2212 41.34 46.4962 42 45.4512 42ZM44.8462 39.29V41.375H45.4512C46.1112 41.375 46.4962 40.9 46.4962 40.335C46.4962 39.745 46.1362 39.29 45.4512 39.29H44.8462ZM47.495 41.53L47.885 40.99C48.12 41.235 48.485 41.44 48.945 41.44C49.335 41.44 49.525 41.255 49.525 41.065C49.525 40.815 49.235 40.73 48.85 40.64C48.305 40.515 47.605 40.365 47.605 39.62C47.605 39.065 48.085 38.615 48.87 38.615C49.4 38.615 49.84 38.775 50.17 39.08L49.775 39.6C49.505 39.35 49.145 39.235 48.82 39.235C48.5 39.235 48.33 39.375 48.33 39.575C48.33 39.8 48.61 39.87 48.995 39.96C49.545 40.085 50.245 40.25 50.245 40.99C50.245 41.6 49.81 42.06 48.91 42.06C48.27 42.06 47.81 41.845 47.495 41.53Z" fill="white"/>
<path fill-rule="evenodd" clip-rule="evenodd" d="M58.0017 51.3324C66.0202 50.2187 71.8614 43.8861 74.5246 35.2336C75.6157 31.6544 75.7777 27.6845 75.3907 23.5262C74.6848 16.1125 71.2954 9.67022 66.3475 4.97389C66.3288 4.95162 66.3168 4.94476 66.3134 4.96532C66.2981 4.9876 66.2572 5.01159 66.235 5.02358C66.2077 5.039 66.2009 5.02701 66.218 5.05785C71.4658 9.8861 74.8383 17.5568 75.2048 25.3149C75.7726 36.3884 70.4173 46.2026 62.3937 49.5779C61.0451 50.1484 59.6385 50.5853 58.1671 50.8081C58.0648 50.9417 58.0034 51.125 58 51.3307" fill="white"/>
<path fill-rule="evenodd" clip-rule="evenodd" d="M77.9959 32.8315C77.3378 33.6145 76.2977 34.3821 75.1741 34.0839C75.1179 34.173 74.8178 34.6065 74.7803 34.6716C74.7291 34.7539 74.6337 34.8344 74.5604 34.7642C74.5177 34.7316 74.4785 34.6716 74.5263 34.5688C74.6865 34.3632 74.8519 34.1559 75.0377 33.9383C75.3668 32.177 75.8493 31.0085 76.8587 29.8211C78.0231 28.4624 79.22 27.8524 79.9566 27.5989C80.0657 27.5663 80.1629 27.5406 80.2703 27.5081C80.3436 28.1865 80.0299 29.1752 79.7878 29.7457C79.3138 30.8971 78.7989 31.908 77.9959 32.8298" fill="white"/>
<path fill-rule="evenodd" clip-rule="evenodd" d="M68.3439 8.0665C68.436 8.1042 68.9833 8.24812 69.0481 8.13504C69.0719 8.10248 69.0413 7.99626 68.9918 7.9894C68.7923 7.96713 68.5707 7.95171 68.3763 7.9123C68.0285 6.79861 67.0447 6.31373 66.1445 6.12698C65.0653 5.90938 63.8752 6.24177 62.6016 6.41996C62.5385 6.43367 62.4669 6.43881 62.4038 6.44223C62.4226 6.48507 62.4533 6.51591 62.4822 6.55532C63.0176 7.28864 63.8479 7.95685 64.6646 8.28924C65.2068 8.52054 65.8649 8.64905 66.5094 8.62849C67.1828 8.61135 67.7557 8.45544 68.3405 8.0665" fill="white"/>
<path fill-rule="evenodd" clip-rule="evenodd" d="M66.2367 5.02358C66.1941 5.039 66.1907 5.02701 66.1157 4.97732C65.9605 4.83683 65.8344 4.74773 65.6792 4.60723C64.8131 4.61409 63.993 4.35708 63.2172 3.83622C62.8728 3.60149 62.5284 3.32221 62.2403 2.98639C61.5498 2.24108 60.9923 1.15138 60.7382 0.152489C60.7246 0.0959484 60.7143 0.056541 60.7109 0C60.7757 0.0274138 60.8337 0.056541 60.8968 0.0856682C62.2966 0.647651 63.6469 0.911509 64.7705 2.00292C65.5309 2.7311 65.9281 3.6152 65.7696 4.47359C65.9401 4.61238 66.1242 4.73916 66.2879 4.90193C66.368 4.96019 66.2811 5.02187 66.2367 5.0253" fill="white"/>
<path fill-rule="evenodd" clip-rule="evenodd" d="M71.3174 12.7371C71.4095 12.7885 71.9397 13.0627 72.0182 12.9719C72.0523 12.9376 72.0369 12.8194 71.9875 12.8022C71.7914 12.7269 71.5578 12.6789 71.3737 12.5949C71.3004 11.8085 70.8639 11.0718 69.9892 10.5646C68.6577 9.85526 67.1419 9.97349 65.72 9.84498C65.6484 9.83984 65.5853 9.8347 65.5205 9.82785C65.5427 9.86726 65.5631 9.90838 65.5819 9.95121C66.0593 10.7753 66.8248 11.6646 67.6142 12.1734C68.1393 12.5281 68.7872 12.7971 69.4317 12.9256C70.1069 13.0524 70.6951 12.9787 71.3174 12.7389" fill="white"/>
<path fill-rule="evenodd" clip-rule="evenodd" d="M78.2959 24.9037C77.8628 25.8786 77.0871 26.9529 75.9532 27.0232C75.9157 27.1225 75.7094 27.5937 75.6805 27.6674C75.6566 27.7685 75.585 27.8798 75.4895 27.8319C75.4486 27.8164 75.4008 27.7599 75.4111 27.6554C75.5236 27.3915 75.6549 27.1893 75.7828 26.9221C75.6805 25.1299 75.7828 23.8174 76.4647 22.3405C77.2388 20.6374 78.3112 19.6643 78.9659 19.1845C79.0478 19.1126 79.1381 19.0543 79.2336 18.9926C79.3836 19.6848 79.3376 20.7642 79.2455 21.3879C79.0733 22.6609 78.8005 23.7626 78.2959 24.902" fill="white"/>
<path fill-rule="evenodd" clip-rule="evenodd" d="M77.0189 17.6973C76.8313 18.7391 76.3642 19.7911 75.3275 20.2434C75.3173 20.353 75.1997 20.8585 75.186 20.9373C75.186 21.0435 75.1485 21.1669 75.0462 21.1532C75.0138 21.1446 74.9422 21.1189 74.9371 21.0093C74.9797 20.7368 75.0581 20.425 75.111 20.1269C74.7649 18.8607 74.579 17.7059 74.6387 16.4637C74.7342 14.7212 75.3804 13.2117 76.3983 11.9901C76.4767 11.8993 76.5381 11.8085 76.608 11.7263C76.8944 12.3259 77.0819 13.354 77.1348 13.9656C77.2405 15.2181 77.2354 16.4757 77.0172 17.6956" fill="white"/>
<path fill-rule="evenodd" clip-rule="evenodd" d="M74.4068 11.1231C74.4324 12.1974 74.1784 13.3951 73.2798 14.0873C73.2884 14.1935 73.3054 14.7161 73.3122 14.788C73.3276 14.8857 73.3208 15.0142 73.2185 15.0347C73.181 15.0382 73.1196 15.0296 73.094 14.9251C73.0735 14.6544 73.0667 14.2432 73.0531 13.9502C72.2893 12.648 71.8818 11.2328 71.8613 9.60852C71.8306 7.73239 72.2944 6.5416 72.6626 5.78944C72.7104 5.68835 72.7615 5.58726 72.811 5.48788C73.2134 5.98133 73.5953 6.91854 73.7675 7.5028C74.1187 8.67303 74.3744 9.88952 74.4068 11.1231Z" fill="white"/>
<path fill-rule="evenodd" clip-rule="evenodd" d="M70.4462 5.11952C70.6781 6.12355 70.6099 7.60218 69.8648 8.207C69.8921 8.33721 69.9569 8.78783 69.9654 8.88378C69.991 8.99001 70.0148 9.09624 69.9296 9.13736C69.8938 9.15106 69.8665 9.15106 69.8239 9.05683C69.7761 8.77755 69.7608 8.53939 69.713 8.25155C68.6474 7.11216 68.0439 5.98134 67.7097 4.44274C67.3687 2.83046 67.4165 1.54716 67.5648 0.645926C67.5818 0.53627 67.6091 0.426615 67.6398 0.315247C68.5775 1.06741 69.2374 2.05774 69.8 3.19027C70.0933 3.80023 70.332 4.43246 70.4445 5.11952" fill="white"/>
<path fill-rule="evenodd" clip-rule="evenodd" d="M73.7062 18.8933C73.7915 18.9738 74.2689 19.4278 74.3848 19.3679C74.4172 19.3422 74.4377 19.1897 74.3865 19.1605C74.2041 19.0149 73.9773 18.9104 73.7966 18.7682C73.8546 17.8978 73.6585 17.0206 72.8708 16.1896C71.6586 15.0125 70.0559 14.615 68.5964 14.0033C68.5316 13.9742 68.4652 13.9365 68.3901 13.9108C68.4021 13.9639 68.414 14.017 68.4293 14.0701C68.7158 15.0793 69.2921 16.2615 69.9945 17.06C70.4497 17.5962 71.0618 18.1068 71.7012 18.4512C72.3661 18.8162 73.0055 18.9327 73.7062 18.8967" fill="white"/>
<path fill-rule="evenodd" clip-rule="evenodd" d="M74.7121 25.9609C74.7786 26.0757 75.1554 26.6993 75.2799 26.6668C75.3259 26.6668 75.3787 26.5177 75.3395 26.4595C75.1793 26.2521 74.9815 26.0808 74.8417 25.8632C75.0872 25.0665 74.9713 23.9151 74.3813 22.8151C73.4436 21.2114 72.0779 20.4284 70.7498 19.3062C70.6918 19.2479 70.6338 19.1948 70.5724 19.1348C70.5673 19.1897 70.5605 19.2445 70.5673 19.3079C70.598 20.4113 70.8827 21.7905 71.3976 22.8271C71.7284 23.5296 72.2194 24.2338 72.7821 24.8146C73.372 25.4109 73.9875 25.7467 74.7104 25.9609" fill="white"/>
<path fill-rule="evenodd" clip-rule="evenodd" d="M74.054 32.8897C74.1017 33.0285 74.3609 33.7653 74.4921 33.7961C74.5348 33.791 74.62 33.6779 74.5876 33.6042C74.4802 33.3592 74.3592 33.0765 74.2586 32.8212C74.7036 32.398 74.8587 31.2055 74.499 29.965C73.8988 28.142 72.5672 26.7713 71.4948 25.2618C71.4454 25.1899 71.3959 25.1179 71.3448 25.0477C71.3294 25.1008 71.3226 25.1573 71.3107 25.2104C71.1282 26.2727 71.1351 27.6862 71.4249 28.8359C71.6193 29.6035 71.9569 30.4465 72.3967 31.1729C72.852 31.9371 73.389 32.4614 74.0574 32.8914" fill="white"/>
<path fill-rule="evenodd" clip-rule="evenodd" d="M75.6619 40.999C74.8503 41.5319 73.3926 41.9363 72.39 41.2783C72.3133 41.34 71.8922 41.5867 71.8444 41.633C71.7745 41.705 71.6688 41.7546 71.6091 41.6518C71.575 41.609 71.5529 41.537 71.6228 41.4565C71.8291 41.3109 72.0627 41.2166 72.2877 41.0727C73.0516 39.4793 73.8734 38.4033 75.1299 37.61C76.5689 36.6831 77.7692 36.666 78.5433 36.666C78.6524 36.666 78.7547 36.6711 78.8672 36.6745C78.6728 38.2491 76.7394 40.3257 75.6619 40.9973" fill="white"/>
<path fill-rule="evenodd" clip-rule="evenodd" d="M71.6687 39.7706C71.6755 39.8682 71.7266 40.3223 71.7982 40.593C71.8221 40.6701 71.8289 40.79 71.9363 40.7472C71.9807 40.7369 72.0216 40.6461 72.0182 40.5999C71.9653 40.3343 71.9244 40.0293 71.9056 39.7603C72.4052 39.4433 72.7956 38.3999 72.8724 37.1234C72.7854 35.1891 71.9227 33.438 71.2322 31.6201C71.2117 31.5396 71.1844 31.4556 71.1538 31.37C71.1265 31.4111 71.106 31.4608 71.0787 31.5002C70.6184 32.4562 70.2672 33.7944 70.2382 35.0006C70.2109 35.7922 70.3217 36.7088 70.5536 37.5603C70.794 38.429 71.1555 39.1195 71.6721 39.7689" fill="white"/>
<path fill-rule="evenodd" clip-rule="evenodd" d="M71.251 47.6041C70.3184 47.7908 69.0481 47.7463 68.2587 46.7388C68.0593 46.768 67.737 46.8211 67.529 46.8348C67.4728 46.8399 67.4267 46.8005 67.4029 46.7234C67.3875 46.672 67.4029 46.6069 67.4983 46.5589C67.7319 46.5058 67.9706 46.5109 68.2229 46.4664C69.2749 45.2311 70.2689 44.532 71.6977 44.2716C73.3549 43.9717 74.7598 44.3949 75.5015 44.7085C75.6055 44.7462 75.7112 44.7907 75.8015 44.8421C75.5356 45.4435 74.7547 46.0603 74.2722 46.355C73.3413 46.9701 72.3797 47.4173 71.2493 47.6058" fill="white"/>
<path fill-rule="evenodd" clip-rule="evenodd" d="M67.9075 44.9895C67.8905 45.1009 67.8751 45.5326 67.8751 45.8239C67.8802 45.901 67.8598 46.0141 67.9689 46.0158C68.0183 46.0141 68.0746 45.9541 68.0797 45.901C68.0985 45.6303 68.0882 45.3476 68.1326 45.07C68.6867 44.8935 69.4198 44.0489 69.7591 42.8855C70.1496 41.0162 69.7216 39.0921 69.5204 37.1234C69.5068 37.0378 69.5102 36.9487 69.5051 36.8527C69.471 36.8904 69.4266 36.9247 69.3943 36.959C68.7157 37.7026 68.0371 38.8522 67.7166 39.983C67.4949 40.7215 67.3756 41.6347 67.379 42.5102C67.3892 43.432 67.5699 44.2031 67.9075 44.9912" fill="white"/>
<path fill-rule="evenodd" clip-rule="evenodd" d="M62.6631 48.7932C62.617 48.8737 62.5505 49.2335 62.4772 49.5111C62.4568 49.5728 62.4175 49.6738 62.5096 49.7132C62.559 49.7321 62.629 49.6927 62.6426 49.6499C62.7381 49.4151 62.7381 49.1753 62.8489 48.9405C63.3877 49.069 64.3237 48.382 64.9375 47.4842C65.7866 45.937 65.8786 44.1174 66.2077 42.2773C66.2179 42.1899 66.2418 42.1128 66.2588 42.0271C66.2179 42.0374 66.1719 42.0614 66.1276 42.0751C65.3109 42.4897 64.3868 43.2179 63.7883 44.1123C63.3826 44.6931 62.9989 45.4932 62.7841 46.3002C62.5625 47.1415 62.5522 47.9468 62.6614 48.7932" fill="white"/>
<path fill-rule="evenodd" clip-rule="evenodd" d="M65.6093 52.2301C64.6563 52.1016 63.4099 51.6596 62.8694 50.4294C62.6768 50.3729 62.3375 50.3335 62.1329 50.2752C62.0766 50.2649 62.0442 50.205 62.0391 50.1261C62.0374 50.0833 62.0681 50.0165 62.167 50.0011C62.4074 50.0353 62.6376 50.1107 62.9087 50.1398C64.2965 49.3123 65.4218 48.9388 66.8795 49.1512C68.5606 49.3911 69.778 50.2392 70.4344 50.7772C70.5299 50.856 70.6202 50.9263 70.7072 51.012C70.3014 51.514 69.3944 51.8464 68.859 51.9869C67.8036 52.285 66.7653 52.3998 65.6093 52.2336" fill="white"/>
<path fill-rule="evenodd" clip-rule="evenodd" d="M22.2813 51.3324C14.2645 50.2187 8.42159 43.8861 5.76013 35.2336C4.66724 31.6544 4.50527 27.6845 4.8923 23.5262C5.59815 16.1125 8.98763 9.67022 13.9355 4.97389C13.9542 4.95162 13.9661 4.94476 13.9696 4.96532C13.9849 4.9876 14.0258 5.01159 14.048 5.02358C14.0753 5.039 14.0838 5.02701 14.065 5.05785C8.81714 9.8861 5.44471 17.5568 5.07984 25.3149C4.51209 36.3884 9.8674 46.2026 17.891 49.5779C19.2379 50.1484 20.6445 50.5853 22.1159 50.8081C22.2182 50.9417 22.2796 51.125 22.283 51.3307" fill="white"/>
<path fill-rule="evenodd" clip-rule="evenodd" d="M2.28873 32.8315C2.94685 33.6145 3.98517 34.3821 5.10875 34.0839C5.16501 34.173 5.46338 34.6065 5.5043 34.6716C5.55375 34.7539 5.64922 34.8344 5.72254 34.7642C5.76516 34.7316 5.80438 34.6716 5.75834 34.5688C5.59637 34.3632 5.43269 34.1559 5.24515 33.9383C4.91609 32.177 4.43358 31.0085 3.42424 29.8211C2.25974 28.4624 1.06286 27.8524 0.324604 27.5989C0.213781 27.5663 0.118302 27.5406 0.0108893 27.5081C-0.0624244 28.1865 0.249585 29.1752 0.493396 29.7457C0.967377 30.8971 1.48228 31.908 2.28532 32.8298" fill="white"/>
<path fill-rule="evenodd" clip-rule="evenodd" d="M11.9388 8.0665C11.8467 8.1042 11.3011 8.24812 11.2346 8.13504C11.2107 8.10248 11.2431 7.99626 11.2909 7.9894C11.4903 7.96713 11.7137 7.95171 11.9064 7.9123C12.2559 6.79861 13.2396 6.31373 14.1382 6.12698C15.2174 5.90938 16.4075 6.24177 17.6811 6.41996C17.7442 6.43367 17.8158 6.43881 17.8789 6.44223C17.8601 6.48507 17.8294 6.51591 17.7987 6.55532C17.2634 7.28864 16.4331 7.95685 15.6181 8.28924C15.0742 8.52054 14.4161 8.64905 13.7733 8.62849C13.0998 8.61135 12.5253 8.45544 11.9405 8.0665" fill="white"/>
<path fill-rule="evenodd" clip-rule="evenodd" d="M14.0461 5.02358C14.0887 5.039 14.0905 5.02701 14.1689 4.97732C14.3223 4.83683 14.4502 4.74773 14.6036 4.60723C15.4698 4.61409 16.2899 4.35708 17.0656 3.83622C17.41 3.60149 17.7544 3.32221 18.0443 2.98639C18.7348 2.24108 19.2906 1.15138 19.5447 0.152489C19.5566 0.0959484 19.5685 0.056541 19.5719 0C19.5088 0.0274138 19.4492 0.056541 19.3861 0.0856682C17.9863 0.647651 16.6377 0.911509 15.5141 2.00292C14.7537 2.7311 14.3547 3.6152 14.515 4.47359C14.3428 4.61238 14.1604 4.73916 13.995 4.90193C13.9148 4.96019 14.0035 5.02187 14.0478 5.0253" fill="white"/>
<path fill-rule="evenodd" clip-rule="evenodd" d="M8.9654 12.7371C8.87334 12.7885 8.34309 13.0627 8.26466 12.9719C8.23056 12.9376 8.24591 12.8194 8.29535 12.8022C8.49142 12.7269 8.7233 12.6789 8.91085 12.5949C8.98416 11.8085 9.41893 11.0718 10.2936 10.5646C11.6252 9.85526 13.1409 9.97349 14.5645 9.84498C14.6361 9.83984 14.6992 9.8347 14.764 9.82785C14.7435 9.86726 14.7214 9.90838 14.7043 9.95121C14.2269 10.7753 13.4597 11.6646 12.6703 12.1734C12.1452 12.5281 11.4956 12.7971 10.8494 12.9256C10.1759 13.0524 9.58942 12.9787 8.9654 12.7389" fill="white"/>
<path fill-rule="evenodd" clip-rule="evenodd" d="M1.98696 24.9037C2.42172 25.8786 3.19578 26.9529 4.32958 27.0232C4.36539 27.1225 4.57339 27.5937 4.60238 27.6674C4.62625 27.7685 4.69786 27.8798 4.79163 27.8319C4.83255 27.8164 4.88029 27.7599 4.86835 27.6554C4.75753 27.3915 4.62454 27.1893 4.49667 26.9221C4.60067 25.1299 4.49667 23.8174 3.81468 22.3405C3.04063 20.6374 1.9682 19.6643 1.31349 19.1845C1.23165 19.1126 1.14129 19.0543 1.04581 18.9926C0.897479 19.6848 0.941808 20.7642 1.03558 21.3879C1.20608 22.6609 1.48058 23.7626 1.98525 24.902" fill="white"/>
<path fill-rule="evenodd" clip-rule="evenodd" d="M3.26386 17.6973C3.45311 18.7391 3.91687 19.7911 4.95519 20.2434C4.96713 20.353 5.08477 20.8585 5.10011 20.9373C5.10011 21.0435 5.13592 21.1669 5.23992 21.1532C5.27061 21.1446 5.34222 21.1189 5.34734 21.0093C5.30471 20.7368 5.22628 20.425 5.17343 20.1269C5.51783 18.8607 5.70708 17.7059 5.6457 16.4637C5.55023 14.7212 4.90234 13.2117 3.88618 11.9901C3.80945 11.8993 3.74637 11.8085 3.67647 11.7263C3.39003 12.3259 3.20248 13.354 3.14963 13.9656C3.04392 15.2181 3.04904 16.4757 3.26727 17.6956" fill="white"/>
<path fill-rule="evenodd" clip-rule="evenodd" d="M5.87768 11.1231C5.8504 12.1974 6.10444 13.3951 7.00296 14.0873C6.99614 14.1935 6.97568 14.7161 6.97056 14.788C6.95522 14.8857 6.96374 15.0142 7.06434 15.0347C7.10185 15.0382 7.16493 15.0296 7.1888 14.9251C7.20926 14.6544 7.21778 14.2432 7.23142 13.9502C7.99525 12.648 8.40274 11.2328 8.42149 9.60852C8.45218 7.73239 7.98672 6.5416 7.62016 5.78944C7.57071 5.68835 7.52127 5.58726 7.47182 5.48788C7.06775 5.98133 6.68754 6.91854 6.51534 7.5028C6.16241 8.67303 5.90837 9.88952 5.87597 11.1231" fill="white"/>
<path fill-rule="evenodd" clip-rule="evenodd" d="M9.83846 5.11952C9.60658 6.12355 9.67308 7.60218 10.4182 8.207C10.3909 8.33721 10.3261 8.78783 10.3193 8.88378C10.292 8.99001 10.2681 9.09624 10.3534 9.13736C10.3892 9.15106 10.4164 9.15106 10.4591 9.05683C10.5068 8.77755 10.5222 8.53939 10.5699 8.25155C11.6372 7.11216 12.2391 5.98134 12.5749 4.44274C12.9125 2.83046 12.8648 1.54716 12.7165 0.645926C12.7011 0.53627 12.6721 0.426615 12.6414 0.315247C11.7037 1.06741 11.0439 2.05774 10.4812 3.19027C10.188 3.80023 9.94928 4.43246 9.83846 5.11952Z" fill="white"/>
<path fill-rule="evenodd" clip-rule="evenodd" d="M6.57677 18.8933C6.49152 18.9738 6.01413 19.4278 5.8982 19.3679C5.8658 19.3422 5.84534 19.1897 5.89649 19.1605C6.07892 19.0149 6.30568 18.9104 6.48811 18.7682C6.42844 17.8978 6.62622 17.0206 7.41221 16.1896C8.62444 15.0125 10.2271 14.615 11.6866 14.0033C11.7531 13.9742 11.8196 13.9365 11.8929 13.9108C11.8809 13.9639 11.869 14.017 11.8519 14.0701C11.5672 15.0793 10.9909 16.2615 10.2885 17.06C9.83327 17.5962 9.22118 18.1068 8.58182 18.4512C7.91688 18.8162 7.27922 18.9327 6.57677 18.8967" fill="white"/>
<path fill-rule="evenodd" clip-rule="evenodd" d="M5.57076 25.9609C5.50427 26.0757 5.12747 26.6993 5.00301 26.6668C4.95356 26.6668 4.90071 26.5177 4.94163 26.4595C5.10189 26.2521 5.29967 26.0808 5.44118 25.8632C5.19396 25.0665 5.31161 23.9151 5.89982 22.8151C6.83755 21.2114 8.20323 20.4284 9.53141 19.3062C9.59108 19.2479 9.64905 19.1948 9.70872 19.1348C9.71384 19.1897 9.72066 19.2445 9.71384 19.3079C9.68315 20.4113 9.39842 21.7905 8.88522 22.8271C8.55275 23.5296 8.06172 24.2338 7.50079 24.8146C6.91257 25.4109 6.29537 25.7467 5.57076 25.9609Z" fill="white"/>
<path fill-rule="evenodd" clip-rule="evenodd" d="M6.23067 32.8897C6.18293 33.0285 5.92378 33.7653 5.7925 33.7961C5.74987 33.791 5.66462 33.6779 5.69702 33.6042C5.80443 33.3592 5.92548 33.0765 6.02608 32.8212C5.58108 32.398 5.42593 31.2055 5.78738 29.965C6.38582 28.142 7.71911 26.7713 8.78983 25.2618C8.84098 25.1899 8.88872 25.1179 8.93987 25.0477C8.95521 25.1008 8.96374 25.1573 8.97397 25.2104C9.15811 26.2727 9.14788 27.6862 8.85974 28.8359C8.66707 29.6035 8.32608 30.4465 7.8879 31.1729C7.43438 31.9371 6.89561 32.4614 6.22726 32.8914" fill="white"/>
<path fill-rule="evenodd" clip-rule="evenodd" d="M4.62282 40.999C5.43268 41.5319 6.89043 41.9363 7.89296 41.2783C7.96968 41.34 8.39081 41.5867 8.43855 41.633C8.50845 41.705 8.61416 41.7546 8.67383 41.6518C8.70964 41.609 8.7301 41.537 8.6619 41.4565C8.4556 41.3109 8.22031 41.2166 7.99696 41.0727C7.23313 39.4793 6.40963 38.4033 5.15307 37.61C3.71408 36.6831 2.51378 36.666 1.73972 36.666C1.6306 36.666 1.5266 36.6711 1.41748 36.6745C1.61014 38.2491 3.54528 40.3257 4.62282 40.9973" fill="white"/>
<path fill-rule="evenodd" clip-rule="evenodd" d="M8.61582 39.7706C8.60729 39.8682 8.55614 40.3223 8.48454 40.593C8.46067 40.6701 8.45385 40.79 8.34814 40.7472C8.3021 40.7369 8.26289 40.6461 8.26459 40.5999C8.31745 40.3343 8.35837 40.0293 8.37883 39.7603C7.87927 39.4433 7.49054 38.3999 7.41211 37.1234C7.49906 35.1891 8.36178 33.438 9.05229 31.6201C9.07275 31.5396 9.10003 31.4556 9.13242 31.37C9.1597 31.4111 9.17846 31.4608 9.20574 31.5002C9.66778 32.4562 10.019 33.7944 10.048 35.0006C10.0753 35.7922 9.96274 36.7088 9.73257 37.5603C9.49217 38.429 9.13242 39.1195 8.61411 39.7689" fill="white"/>
<path fill-rule="evenodd" clip-rule="evenodd" d="M9.03176 47.6041C9.96438 47.7908 11.2346 47.7463 12.024 46.7388C12.2235 46.768 12.5474 46.8211 12.7554 46.8348C12.8117 46.8399 12.8577 46.8005 12.8799 46.7234C12.8952 46.672 12.8799 46.6069 12.7844 46.5589C12.5491 46.5058 12.3104 46.5109 12.0598 46.4664C11.0078 45.2311 10.0138 44.532 8.58506 44.2716C6.92782 43.9717 5.52293 44.3949 4.77956 44.7085C4.67726 44.7462 4.56985 44.7907 4.47778 44.8421C4.74546 45.4435 5.52463 46.0603 6.00885 46.355C6.93805 46.9701 7.89966 47.4173 9.03005 47.6058" fill="white"/>
<path fill-rule="evenodd" clip-rule="evenodd" d="M12.3754 44.9895C12.3907 45.1009 12.4077 45.5326 12.4077 45.8239C12.4026 45.901 12.4231 46.0141 12.314 46.0158C12.2645 46.0141 12.2083 45.9541 12.2031 45.901C12.1844 45.6303 12.1963 45.3476 12.1503 45.07C11.5962 44.8935 10.863 44.0489 10.5238 42.8855C10.135 41.0162 10.5596 39.0921 10.7624 37.1234C10.7761 37.0378 10.7727 36.9487 10.7795 36.8527C10.8136 36.8904 10.8579 36.9247 10.892 36.959C11.5706 37.7026 12.2475 38.8522 12.5697 39.983C12.7914 40.7215 12.9107 41.6347 12.9056 42.5102C12.8954 43.432 12.7146 44.2031 12.3788 44.9912" fill="white"/>
<path fill-rule="evenodd" clip-rule="evenodd" d="M17.62 48.7932C17.6677 48.8737 17.7342 49.2335 17.8058 49.5111C17.8263 49.5728 17.8672 49.6738 17.7734 49.7132C17.724 49.7321 17.6558 49.6927 17.6421 49.6499C17.5466 49.4151 17.5466 49.1753 17.4358 48.9405C16.897 49.069 15.961 48.382 15.3472 47.4842C14.4982 45.937 14.4061 44.1174 14.077 42.2773C14.0668 42.1899 14.0429 42.1128 14.0242 42.0271C14.0651 42.0374 14.1111 42.0614 14.1555 42.0751C14.9721 42.4897 15.8962 43.2179 16.493 44.1123C16.9005 44.6931 17.2841 45.4932 17.4989 46.3002C17.7205 47.1415 17.7308 47.9468 17.6217 48.7932" fill="white"/>
<path fill-rule="evenodd" clip-rule="evenodd" d="M14.6735 52.2301C15.6283 52.1016 16.873 51.6596 17.4151 50.4294C17.6061 50.3729 17.9454 50.3335 18.1517 50.2752C18.2079 50.2649 18.2403 50.205 18.2455 50.1261C18.2472 50.0833 18.2148 50.0165 18.1176 50.0011C17.8772 50.0353 17.6453 50.1107 17.3759 50.1398C15.9864 49.3123 14.8628 48.9388 13.4051 49.1512C11.7257 49.3911 10.5066 50.2392 9.85019 50.7772C9.75471 50.856 9.66435 50.9263 9.57739 51.012C9.98318 51.514 10.8902 51.8464 11.4256 51.9869C12.481 52.285 13.521 52.3998 14.6753 52.2336" fill="white"/>
</g>
<defs>
<clipPath id="clip0_1795_474">
<rect width="80" height="54" fill="white"/>
</clipPath>
</defs>
</svg>
