<?xml version="1.0" encoding="UTF-8"?>
<svg id="ART" xmlns="http://www.w3.org/2000/svg" width="163.134mm" height="48mm" version="1.1" viewBox="0 0 462.429 136.063">
  <defs>
    <style>
      .st0 {
        fill: #fff;
      }
    </style>
  </defs>
  <path class="st0" d="M131.646,103.41h2.465l-3.612,8.684h-2.431l-3.613-8.684h2.467l2.362,5.887,2.362-5.887ZM156.846,103.168c-1.146,0-2.049.363-2.727,1.041v-.781h-2.292v8.666h2.292v-3.838c0-2.118.851-2.988,2.154-2.988,1.06,0,1.754.816,1.754,2.032v4.794h2.292v-5.28c0-2.154-1.388-3.646-3.473-3.646ZM147.017,105.008v-1.58h-2.294v8.666h2.294v-2.797c0-2.414.971-3.716,3.09-3.716h.504l.121-2.206c-.208-.07-.382-.07-.608-.07-1.406,0-2.413.696-3.107,1.703ZM146.424,92.207h-6.6c.226,1.251,1.129,2.014,2.258,2.014.695,0,1.458-.121,2.067-.867l1.823.903c-.833,1.302-2.189,1.928-3.89,1.928-2.535,0-4.533-1.859-4.533-4.586s1.998-4.602,4.48-4.602c2.311,0,4.307,1.789,4.395,4.429v.781ZM144.079,90.593c-.312-1.113-1.129-1.598-2.05-1.598-.868,0-1.858.52-2.135,1.598h4.185ZM143.334,107.596v.782h-6.599c.225,1.25,1.129,2.013,2.257,2.013.695,0,1.459-.122,2.066-.867l1.824.902c-.833,1.303-2.188,1.929-3.89,1.929-2.535,0-4.533-1.859-4.533-4.585s1.998-4.603,4.481-4.603c2.31,0,4.307,1.789,4.394,4.429ZM140.99,106.762c-.313-1.111-1.13-1.598-2.05-1.598-.869,0-1.858.521-2.136,1.598h4.186ZM108.46,105.302v2.155h3.039c-.4,1.649-1.719,2.691-3.49,2.691-2.171,0-3.857-1.667-3.857-3.872s1.702-3.857,3.787-3.857c1.008,0,1.928.348,2.587,1.112l1.945-1.337c-1.076-1.285-2.708-1.998-4.532-1.998-3.421,0-6.183,2.675-6.183,6.08s2.71,6.079,6.183,6.079c3.439,0,5.905-2.589,5.905-6.045,0-.277-.017-.608-.053-1.008h-5.331ZM124.109,107.769c0,2.727-2.138,4.551-4.672,4.551-2.589,0-4.725-1.824-4.725-4.551s2.136-4.55,4.725-4.55c2.534,0,4.672,1.824,4.672,4.55ZM121.885,107.769c0-1.615-1.251-2.587-2.448-2.587-1.251,0-2.502.972-2.502,2.587s1.251,2.588,2.502,2.588c1.197,0,2.448-.972,2.448-2.588ZM102.712,55.278h-4.923l-5.743,12.149-3.274-2.004c-1.277,1.748-3.09,2.924-5.711,2.924-3.493,0-6.517-3.192-6.517-6.653s3.024-6.65,6.517-6.65c2.621,0,4.434,1.175,5.711,2.922l5.71-3.494c-2.62-3.83-6.953-5.946-11.757-5.946-7.122,0-13.504,5.678-13.504,13.168s6.382,13.169,13.504,13.169c2.317,0,4.525-.497,6.483-1.438l-24.256,51.3-23.837-50.412h4.624l11.494-25.207h-7.662l-6.386,13.747-6.386-13.747h-7.602L11.339,11.339h107.227l-17.854,37.758h15.74v6.181h-6.886v19.014h-6.854v-19.014ZM66.03,49.097h-6.853v25.195h6.853v-25.195ZM119.367,95.542l-.661-1.911c-.451.244-1.042.417-1.441.417-.764,0-1.268-.452-1.268-1.493v-3.422h2.831v-1.875h-2.831v-2.624h-2.293v2.624h-1.857v1.875h1.857v3.595c0,2.379,1.355,3.457,3.405,3.457.729,0,1.355-.157,2.258-.643ZM106.931,94.117c-1.233,0-2.153-.503-2.536-1.633l-2.396.957c.608,1.84,2.536,2.744,4.706,2.744,2.762,0,4.621-1.407,4.621-3.666,0-1.805-1.165-2.917-3.057-3.333l-2.327-.504c-.904-.192-1.164-.59-1.164-1.181,0-.782.712-1.443,1.893-1.443.921,0,1.72.452,2.102,1.181l2.258-.745c-.714-1.547-2.311-2.466-4.308-2.466-2.726,0-4.428,1.458-4.428,3.542,0,2.275,1.666,3.058,3.057,3.335l2.292.468c1.042.21,1.354.608,1.354,1.269,0,.833-.711,1.475-2.067,1.475ZM197.82,49.09l11.664,25.21h-7.461l-1.277-2.892h-8.741l-1.277,2.892h-7.462l11.664-25.21h2.89ZM198.561,65.862l-2.018-5.444h-.337l-2.015,5.444h4.37ZM135.101,96.185c.729,0,1.355-.157,2.258-.643l-.661-1.911c-.451.244-1.041.417-1.441.417-.764,0-1.267-.452-1.267-1.493v-3.422h2.83v-1.875h-2.83v-2.624h-2.294v2.624h-1.857v1.875h1.857v3.595c0,2.379,1.356,3.457,3.405,3.457ZM169.629,74.291h-7.693l-3.124-6.852h-3.225v6.852h-6.853v-25.194h11.455c5.308,0,9.507,3.897,9.507,9.171,0,3.393-1.914,5.879-4.334,7.559l4.267,8.464ZM162.507,58.268c0-1.243-1.007-2.989-2.553-2.989h-4.367v5.979h4.367c1.546,0,2.553-1.747,2.553-2.99ZM117.594,61.694c0-7.49,6.483-13.168,13.975-13.168s13.974,5.678,13.974,13.168-6.483,13.169-13.974,13.169-13.975-5.677-13.975-13.169ZM124.918,61.694c0,3.663,2.989,6.653,6.651,6.653s6.652-2.99,6.652-6.653-2.991-6.651-6.652-6.651-6.651,2.99-6.651,6.651ZM126.678,95.924v-.677c-.729.591-1.686.938-2.866.938-2.206,0-4.256-1.859-4.256-4.586s2.05-4.602,4.256-4.602c1.18,0,2.137.347,2.866.955v-.694h2.291v8.666h-2.291ZM126.678,91.599c0-1.598-1.234-2.605-2.467-2.605-1.39,0-2.431,1.007-2.431,2.605s1.041,2.588,2.431,2.588c1.233,0,2.467-.99,2.467-2.588ZM235.94,112.095h.529v-63.029h-.529v63.029ZM173.066,103.167c-1.388,0-2.448.538-3.161,1.424-.624-.92-1.684-1.424-2.848-1.424-1.128,0-1.98.365-2.587.973v-.713h-2.293v8.666h2.293v-4.167c0-1.824.764-2.658,1.979-2.658.957,0,1.702.712,1.702,1.876v4.949h2.294v-4.167c0-1.824.798-2.658,2.014-2.658.956,0,1.702.712,1.702,1.876v4.949h2.275v-5.418c0-2.119-1.563-3.508-3.37-3.508ZM179.906,49.097h-6.852v25.195h6.852v-25.195ZM202.436,110.218c-.765,0-1.268-.451-1.268-1.494v-3.422h2.83v-1.874h-2.83v-2.623h-2.293v2.623h-1.858v1.874h1.858v3.596c0,2.378,1.355,3.457,3.404,3.457.729,0,1.355-.156,2.259-.643l-.662-1.91c-.451.243-1.041.416-1.44.416ZM192.9,103.168c-1.147,0-2.05.363-2.726,1.041v-.781h-2.294v8.666h2.294v-3.838c0-2.118.851-2.988,2.153-2.988,1.06,0,1.755.816,1.755,2.032v4.794h2.292v-5.28c0-2.154-1.39-3.646-3.474-3.646ZM186.492,107.596v.782h-6.6c.226,1.25,1.129,2.013,2.258,2.013.694,0,1.458-.122,2.066-.867l1.824.902c-.834,1.303-2.188,1.929-3.89,1.929-2.536,0-4.533-1.859-4.533-4.585s1.997-4.603,4.481-4.603c2.31,0,4.307,1.789,4.394,4.429ZM184.147,106.762c-.312-1.111-1.128-1.598-2.049-1.598-.868,0-1.858.521-2.136,1.598h4.185ZM273.897,74.615c4.939,0,9.232-2.356,11.36-6.688l-4.749-2.014c-1.368,2.697-3.838,3.875-6.611,3.875-4.56,0-8.169-3.647-8.169-8.472s3.609-8.435,8.169-8.435c2.508,0,4.787.988,6.231,3.154l4.598-2.394c-2.28-3.572-6.308-5.624-10.829-5.624-7.484,0-13.374,5.852-13.374,13.298,0,7.485,5.89,13.298,13.374,13.298ZM305.019,74.045l-6.041-8.207h-4.104v8.207h-5.168v-25.456h11.627c5.699,0,9.688,3.458,9.688,8.625,0,4.104-2.508,7.143-6.421,8.207l6.915,8.625h-6.497ZM305.892,57.213c0-2.355-1.938-3.951-4.559-3.951h-6.459v7.903h6.459c2.621,0,4.559-1.596,4.559-3.952ZM335.608,69.372h-14.172v-5.775h12.994v-4.598h-12.994v-5.737h14.096v-4.673h-19.264v25.456h19.34v-4.673ZM344.996,74.045h-5.585l10.372-25.456h4.978l10.373,25.456h-5.586l-2.052-5.434h-10.448l-2.052,5.434ZM348.834,63.938h6.877l-3.42-9.081-3.457,9.081ZM364.605,53.262h8.473v20.783h5.167v-20.783h8.474v-4.673h-22.113v4.673ZM396.22,48.588h-5.168v25.456h5.168v-25.456ZM421.449,48.588l-7.789,18.541-7.751-18.541h-5.699l10.98,25.456h4.978l10.98-25.456h-5.699ZM450.481,69.372h-14.172v-5.775h12.994v-4.598h-12.994v-5.737h14.096v-4.673h-19.264v25.456h19.34v-4.673ZM272.984,107.941l-9.271-21.353h-3.268l11.095,25.456h2.888l11.094-25.456h-3.268l-9.271,21.353ZM291.645,112.045h3.001v-25.456h-3.001v25.456ZM315.355,109.727c-5.699,0-10.183-4.56-10.183-10.411,0-5.889,4.483-10.41,10.183-10.41,3.344,0,6.155,1.368,7.941,3.762l2.621-1.444c-2.279-3.191-6.079-5.129-10.562-5.129-7.408,0-13.222,5.813-13.222,13.222s5.813,13.223,13.222,13.223c4.75,0,8.777-2.166,10.942-5.852l-2.697-1.254c-1.748,2.773-4.712,4.294-8.245,4.294ZM330.557,89.286h9.46v22.759h3.04v-22.759h9.423v-2.697h-21.923v2.697ZM381.283,99.316c0,7.409-5.775,13.223-13.146,13.223-7.408,0-13.184-5.813-13.184-13.223,0-7.37,5.775-13.222,13.184-13.222s13.146,5.852,13.146,13.222ZM378.243,99.316c0-5.851-4.445-10.41-10.106-10.41-5.699,0-10.145,4.56-10.145,10.41,0,5.89,4.445,10.373,10.145,10.373,5.661,0,10.106-4.483,10.106-10.373ZM400.589,102.394l8.244,9.65h-3.837l-7.865-9.574h-6.079v9.574h-3.001v-25.456h11.094c5.357,0,9.005,3.153,9.005,7.94,0,4.332-3.001,7.333-7.561,7.865ZM399.145,99.734c3.572,0,6.004-2.089,6.004-5.205,0-3.153-2.432-5.243-6.004-5.243h-8.093v10.448h8.093ZM416.36,112.045h3.001v-25.456h-3.001v25.456ZM451.09,112.045h-3.229l-2.66-6.459h-12.651l-2.66,6.459h-3.229l10.79-25.456h2.85l10.791,25.456ZM444.061,102.888l-5.167-12.576-5.205,12.576h10.372Z"/>
  <metadata>
    <sfw xmlns="http://ns.adobe.com/SaveForWeb/1.0/">
      <slices/>
      <sliceSourceBounds x="52.34" y="-67.17" width="439.75" height="362.83" bottomLeftOrigin="true"/>
    </sfw>
  </metadata>
</svg>