<svg width="108" height="108" viewBox="0 0 108 108" fill="none" xmlns="http://www.w3.org/2000/svg">
<mask id="path-1-inside-1_561_880" fill="white">
<path fill-rule="evenodd" clip-rule="evenodd" d="M72 4C72 1.79086 70.2091 0 68 0H40C37.7909 0 36 1.79086 36 4V32C36 34.2091 34.2091 36 32 36H4C1.79086 36 0 37.7909 0 40V68C0 70.2091 1.79086 72 4 72H32C34.2091 72 36 73.7909 36 76V104C36 106.209 37.7909 108 40 108H68C70.2091 108 72 106.209 72 104V76C72 73.7909 73.7909 72 76 72H104C106.209 72 108 70.2091 108 68V40C108 37.7909 106.209 36 104 36H76C73.7909 36 72 34.2091 72 32V4Z"/>
</mask>
<path d="M40 2H68V-2H40V2ZM38 32V4H34V32H38ZM4 38H32V34H4V38ZM2 68V40H-2V68H2ZM32 70H4V74H32V70ZM38 104V76H34V104H38ZM68 106H40V110H68V106ZM70 76V104H74V76H70ZM104 70H76V74H104V70ZM106 40V68H110V40H106ZM76 38H104V34H76V38ZM70 4V32H74V4H70ZM76 34C74.8954 34 74 33.1046 74 32H70C70 35.3137 72.6863 38 76 38V34ZM110 40C110 36.6863 107.314 34 104 34V38C105.105 38 106 38.8954 106 40H110ZM104 74C107.314 74 110 71.3137 110 68H106C106 69.1046 105.105 70 104 70V74ZM74 76C74 74.8954 74.8954 74 76 74V70C72.6863 70 70 72.6863 70 76H74ZM68 110C71.3137 110 74 107.314 74 104H70C70 105.105 69.1046 106 68 106V110ZM34 104C34 107.314 36.6863 110 40 110V106C38.8954 106 38 105.105 38 104H34ZM32 74C33.1046 74 34 74.8954 34 76H38C38 72.6863 35.3137 70 32 70V74ZM-2 68C-2 71.3137 0.686291 74 4 74V70C2.89543 70 2 69.1046 2 68H-2ZM4 34C0.686292 34 -2 36.6863 -2 40H2C2 38.8954 2.89543 38 4 38V34ZM34 32C34 33.1046 33.1046 34 32 34V38C35.3137 38 38 35.3137 38 32H34ZM68 2C69.1046 2 70 2.89543 70 4H74C74 0.686292 71.3137 -2 68 -2V2ZM40 -2C36.6863 -2 34 0.686291 34 4H38C38 2.89543 38.8954 2 40 2V-2Z" fill="white" mask="url(#path-1-inside-1_561_880)"/>
<path d="M97.9574 54L84 62.2476L84 45.7524L84 45.7524L97.9574 54Z" stroke="white" stroke-width="2"/>
<path d="M9.9657 54L23.9231 45.7524L23.9231 62.2476L23.9231 62.2476L9.9657 54Z" stroke="white" stroke-width="2"/>
<path d="M54 98.1132L45.8042 85L62.1958 85L54 98.1132Z" stroke="white" stroke-width="2"/>
<path d="M54 9.96568L62.2476 23.9231L45.7524 23.9231L45.7524 23.9231L54 9.96568Z" stroke="white" stroke-width="2"/>
<circle cx="54" cy="54" r="10" stroke="white" stroke-width="2"/>
</svg>
