<svg width="180" height="45" viewBox="0 0 180 45" fill="none" xmlns="http://www.w3.org/2000/svg">
<g id="SLV Logo">
<path id="Vector" d="M68.0855 21.6462C66.8165 21.2232 66.0014 20.9859 66.0014 19.8922C66.0014 19.1494 66.5585 18.6232 67.2911 18.6232C67.9204 18.6232 68.6014 18.9121 68.7046 20.0367H71.0776C70.9641 17.4676 68.8181 16.4462 67.3633 16.4462C65.2379 16.4462 63.6799 18.0248 63.6799 20.0367C63.6799 22.6883 65.7022 23.2867 66.6617 23.6581C68.2196 24.2566 69.0554 24.4939 69.0554 25.7835C69.0554 26.7328 68.2403 27.3621 67.322 27.3621C66.6101 27.3621 65.7744 26.9391 65.6609 25.6804H63.2156C63.3498 28.4558 65.6919 29.5391 67.3014 29.5391C69.272 29.5391 71.3665 28.2494 71.3665 25.5256C71.3665 22.8018 69.107 21.9867 68.0752 21.6462" fill="white"/>
<path id="Vector_2" d="M76.9792 29.2812V18.8811H79.3213V16.7041H72.3363V18.8811H74.6578V29.2812H76.9792Z" fill="white"/>
<path id="Vector_3" d="M83.696 23.8438L85.1198 19.9851H85.1508L86.5746 23.8438H83.6857H83.696ZM86.0484 16.7041H84.2325L79.0118 29.2812H81.5706L82.9118 26.0312H87.4103L88.7516 29.2812H91.3103L86.0484 16.7041Z" fill="white"/>
<path id="Vector_4" d="M93.3945 29.2812H95.7159V18.8811H98.058V16.7041H91.073V18.8811H93.3945V29.2812Z" fill="white"/>
<path id="Vector_5" d="M99.5231 29.2812H106.281V27.1042H101.845V24.1327H106.085V21.9557H101.845V18.8811H106.281V16.7041H99.5231V29.2812Z" fill="white"/>
<path id="Vector_6" d="M120.313 27.1042H116.485V16.7041H114.164V29.2812H120.313V27.1042Z" fill="white"/>
<path id="Vector_7" d="M124.646 16.7041H122.325V29.2812H124.646V16.7041Z" fill="white"/>
<path id="Vector_8" d="M130.692 27.1042H129.527V23.7716H130.744C132.777 23.7716 133.035 24.9478 133.035 25.4534C133.035 27.1042 131.146 27.1042 130.692 27.1042ZM129.527 18.8811H130.496C131.817 18.8811 132.292 19.4898 132.292 20.243C132.292 21.6049 130.837 21.6049 130.29 21.6049H129.527V18.8811ZM135.356 25.5462C135.356 23.4208 134.035 22.7192 133.2 22.42C133.592 22.2034 134.603 21.6049 134.603 20.0263C134.603 19.1597 134.159 18.2414 133.53 17.6843C132.446 16.7144 131.054 16.7144 129.661 16.7144H127.184V29.2915H130.538C131.353 29.2915 132.828 29.209 133.777 28.5383C134.541 27.9915 135.335 27.0629 135.335 25.5462" fill="white"/>
<path id="Vector_9" d="M139.555 22.7192V18.8811H141.051C142.867 18.8811 143.29 20.0883 143.29 20.7899C143.29 21.4914 142.97 22.7296 141.051 22.7296H139.555V22.7192ZM142.32 24.6383C142.95 24.4835 143.662 24.3185 144.404 23.6065C145.302 22.7399 145.612 21.4295 145.612 20.5938C145.612 19.1494 144.848 18.1279 144.136 17.5501C143.424 16.9724 142.527 16.7041 141.082 16.7041H137.234V29.2812H139.555V24.4732H139.586L142.908 29.2812H145.725L142.32 24.6383Z" fill="white"/>
<path id="Vector_10" d="M152.906 19.9851H152.937L154.361 23.8438H151.482L152.906 19.9851ZM155.197 26.0312L156.538 29.2812H159.097L153.835 16.7041H152.019L146.798 29.2812H149.357L150.698 26.0312H155.197Z" fill="white"/>
<path id="Vector_11" d="M162.708 18.8811H164.204C166.02 18.8811 166.443 20.0883 166.443 20.7795C166.443 21.4708 166.123 22.7192 164.204 22.7192H162.708V18.8811ZM162.708 24.4732H162.739L166.061 29.2812H168.878L165.473 24.6383C166.102 24.4835 166.814 24.3185 167.557 23.5962C168.455 22.7296 168.764 21.4192 168.764 20.5835C168.764 19.139 168.001 18.1176 167.289 17.5398C166.577 16.962 165.679 16.6938 164.235 16.6938H160.386V29.2709H162.708V24.4629V24.4732Z" fill="white"/>
<path id="Vector_12" d="M177.441 16.7041L174.686 22.4819L171.963 16.7041H169.414L173.541 24.6383V29.2812H175.863V24.6383L180 16.7041H177.441Z" fill="white"/>
<path id="Vector_13" d="M59.6148 31.8915L56.241 41.4662H56.21L52.8465 31.8915H50.4012L55.2918 44.4686H57.1902L62.0601 31.8915H59.6148Z" fill="white"/>
<path id="Vector_14" d="M65.8776 31.8915H63.5561V44.4686H65.8776V31.8915Z" fill="white"/>
<path id="Vector_15" d="M74.3792 33.8106C75.7721 33.8106 76.8348 34.44 77.7324 35.4717H80.3737C79.1666 32.7169 76.5356 31.6336 74.4515 31.6336C70.8197 31.6336 67.9514 34.6566 67.9514 38.1233C67.9514 41.59 70.8713 44.7163 74.503 44.7163C76.907 44.7163 79.3213 43.2718 80.3015 40.9607H77.6086C77.0515 41.5591 76.1332 42.5393 74.4515 42.5393C72.2332 42.5393 70.2832 40.517 70.2832 38.1543C70.2832 35.6368 72.3364 33.8003 74.3689 33.8003" fill="white"/>
<path id="Vector_16" d="M81.1063 31.8915V34.0685H83.4277V44.4686H85.7492V34.0685H88.0912V31.8915H81.1063Z" fill="white"/>
<path id="Vector_17" d="M99.3786 38.1956C99.3786 40.5273 97.5318 42.5496 95.1381 42.5496C92.7445 42.5496 90.8976 40.5273 90.8976 38.1956C90.8976 35.8638 92.7857 33.8106 95.1381 33.8106C97.4905 33.8106 99.3786 35.7813 99.3786 38.1956ZM88.5762 38.2162C88.5762 41.817 91.527 44.7266 95.1381 44.7266C98.7493 44.7266 101.7 41.817 101.7 38.2162C101.7 34.6154 98.6977 31.6336 95.1381 31.6336C91.5786 31.6336 88.5762 34.4916 88.5762 38.2162Z" fill="white"/>
<path id="Vector_18" d="M106.095 37.9067V34.0685H107.591C109.407 34.0685 109.83 35.2757 109.83 35.967C109.83 36.6582 109.51 37.9067 107.591 37.9067H106.095ZM110.945 38.794C111.842 37.9273 112.152 36.617 112.152 35.7813C112.152 34.3368 111.388 33.3154 110.676 32.7376C109.964 32.1598 109.067 31.8915 107.622 31.8915H103.774V44.4686H106.095V39.6607H106.126L109.449 44.4686H112.265L108.86 39.8257C109.49 39.671 110.202 39.5059 110.945 38.7837" fill="white"/>
<path id="Vector_19" d="M116.661 31.8915H114.339V44.4686H116.661V31.8915Z" fill="white"/>
<path id="Vector_20" d="M124.254 35.1725H124.285L125.709 39.0313H122.82L124.244 35.1725H124.254ZM123.377 31.8915L118.157 44.4686H120.715L122.057 41.2186H126.555L127.896 44.4686H130.455L125.193 31.8915H123.377Z" fill="white"/>
<path id="Vector_21" d="M5.29291 0.969841V7.15005L6.70641 6.33497V0.154755L5.29291 0.969841Z" fill="white"/>
<path id="Vector_22" d="M11.6588 37.9686L13.9081 39.2686L20.1295 35.6678L17.8803 34.3678L11.6588 37.9686Z" fill="white"/>
<path id="Vector_23" d="M10.4207 38.6805L4.19924 42.2813L6.43815 43.5813L12.6596 39.9908L10.4207 38.6805Z" fill="white"/>
<path id="Vector_24" d="M19.8922 38.4122L22.1415 39.7122L24.628 38.2678L22.3788 36.9678L19.8922 38.4122Z" fill="white"/>
<path id="Vector_25" d="M11.1842 43.4472L13.4335 44.7472L20.893 40.4242L18.6438 39.1241L11.1842 43.4472Z" fill="white"/>
<path id="Vector_26" d="M21.347 34.8424L25.8764 37.463V34.0892L21.347 31.4789V34.8424Z" fill="white"/>
<path id="Vector_27" d="M12.9176 0V2.53812L16.1366 4.40559V1.86748L12.9176 0Z" fill="white"/>
<path id="Vector_28" d="M25.8971 7.49053L17.7978 2.80637V5.34448L25.8971 10.0287V7.49053Z" fill="white"/>
<path id="Vector_29" d="M44.025 18.9121L40.5273 16.8898V18.4994L44.025 20.5216V18.9121Z" fill="white"/>
<path id="Vector_30" d="M39.3615 16.2089L38.0408 15.4557V17.0446L39.3615 17.8184V16.2089Z" fill="white"/>
<path id="Vector_31" d="M29.2193 22.1415L38.9488 27.7645V26.155L29.2193 20.5216V22.1415Z" fill="white"/>
<path id="Vector_32" d="M32.4074 29.0749L36.4106 31.386V29.7868L32.4074 27.4653V29.0749Z" fill="white"/>
<path id="Vector_33" d="M36.7821 19.82L33.6249 17.9835V19.593L36.7821 21.4192V19.82Z" fill="white"/>
<path id="Vector_34" d="M37.948 20.4907V22.1002L45.2012 26.2891V24.6796L37.948 20.4907Z" fill="white"/>
<path id="Vector_35" d="M12.9176 17.8184L30.7566 28.136V25.5875L12.9176 15.27V12.7215L25.8661 20.2121V17.674L12.9176 10.1834V7.71753V7.63499L25.8661 15.1255V12.5771L12.9176 5.08656V2.76511L9.96675 4.47782V19.3248L8.94531 19.9232V25.2058L12.9176 22.905L31.9741 33.9344H31.9844V31.3963L12.9176 20.3668V17.8184Z" fill="white"/>
<path id="Vector_36" d="M8.11991 36.2043L12.4223 33.7178L13.4541 34.3059L15.6001 33.0678L11.6072 30.7566L12.9279 29.9931L12.9176 29.9828L18.5097 33.2122V29.8487L15.7033 28.2288V26.6502L12.9176 25.051L9.96675 26.7534V29.2296L8.94532 29.8177V32.2939L6.70641 33.5836V27.8574L4.4675 29.1471V34.894L5.16909 34.4916L8.11991 36.2043Z" fill="white"/>
<path id="Vector_37" d="M6.7064 14.9708L4.47781 16.2605V27.7129L6.7064 26.4232V14.9708Z" fill="white"/>
<path id="Vector_38" d="M6.70641 7.36673L5.29291 8.18182V14.3517L6.70641 13.5366V7.36673Z" fill="white"/>
<path id="Vector_39" d="M0 34.5947V37.494L2.97145 39.2067L3.83813 38.6908L4.86988 39.2892L7.01593 38.0408L3.02304 35.7297L2.23891 36.1837V33.3051L0 34.5947Z" fill="white"/>
<path id="Vector_40" d="M0 23.1423V33.1709L2.23891 31.8709V21.8526L0 23.1423Z" fill="white"/>
<path id="Vector_41" d="M0.825405 11.9787V21.2335L2.23891 20.4184V11.1636L0.825405 11.9787Z" fill="white"/>
<path id="Vector_42" d="M0.825405 7.86196V10.9469L2.23891 10.1318V7.04688L0.825405 7.86196Z" fill="white"/>
</g>
</svg>
