<svg width="100" height="100" viewBox="0 0 100 100" fill="none" xmlns="http://www.w3.org/2000/svg">
<rect opacity="0.0833333" x="60.5979" y="37.6436" width="6" height="20" rx="3" transform="rotate(-150 60.5979 37.6436)" fill="#EAEAEA"/>
<rect opacity="0.166667" x="65.3562" y="44.5981" width="6" height="20" rx="3" transform="rotate(-120 65.3562 44.5981)" fill="#EAEAEA"/>
<rect opacity="0.25" x="66" y="53" width="6" height="20" rx="3" transform="rotate(-90 66 53)" fill="#EAEAEA"/>
<rect opacity="0.333333" x="62.3562" y="60.5981" width="6" height="20" rx="3" transform="rotate(-60 62.3562 60.5981)" fill="#EAEAEA"/>
<rect opacity="0.416667" x="55.4019" y="65.3564" width="6" height="20" rx="3" transform="rotate(-30 55.4019 65.3564)" fill="#EAEAEA"/>
<rect opacity="0.5" x="47" y="66" width="6" height="20" rx="3" fill="#EAEAEA"/>
<rect opacity="0.583333" x="34.5979" y="82.6769" width="6" height="20" rx="3" transform="rotate(-150 34.5979 82.6769)" fill="#EAEAEA"/>
<rect opacity="0.666667" x="20.323" y="70.5981" width="6" height="20" rx="3" transform="rotate(-120 20.323 70.5981)" fill="#EAEAEA"/>
<rect opacity="0.75" x="14" y="53" width="6" height="20" rx="3" transform="rotate(-90 14 53)" fill="#EAEAEA"/>
<rect opacity="0.833333" x="17.323" y="34.5981" width="6" height="20" rx="3" transform="rotate(-60 17.323 34.5981)" fill="#EAEAEA"/>
<rect opacity="0.916667" x="29.4019" y="20.3231" width="6" height="20" rx="3" transform="rotate(-30 29.4019 20.3231)" fill="#EAEAEA"/>
<rect x="47" y="14" width="6" height="20" rx="3" fill="#EAEAEA"/>
</svg>
